<svg width="576" height="500" viewBox="0 0 576 500" fill="none" xmlns="http://www.w3.org/2000/svg">
<path d="M70.5001 262C68.4846 269.221 133.546 388.219 165.573 449.906C168.165 454.897 173.29 458 178.915 458H441.327C447.367 458 452.818 454.377 455.156 448.809L547.026 230.08C548.894 225.635 548.51 220.562 545.994 216.448L443.031 48.0286C440.029 43.1192 434.484 40.3595 428.758 40.9253L172.051 66.2905C166.477 66.8413 161.7 70.4219 159.544 75.5911C131.66 142.425 72.5205 254.761 70.5001 262Z" fill="#919FCF"/>
<path d="M153.789 -13.0396C154.561 -11.3664 156.749 -9.04959 158.551 -7.8912C160.482 -6.7328 163.313 -4.67342 164.858 -3.51502L167.818 -1.19823H162.541C156.234 -1.19823 153.274 1.76212 156.234 5.23732C157.65 6.91056 159.195 7.16798 162.927 6.65314C168.204 5.75216 174.897 8.32638 183.006 14.5045C185.194 16.1777 188.798 18.2371 190.858 18.8807C194.848 20.2965 194.719 19.9104 198.709 45.1377C202.055 66.2463 211.709 76.5432 237.065 86.3252C242.085 88.3846 246.332 90.3152 246.332 90.8301C246.332 91.3449 242.213 95.335 237.322 99.7111C221.877 113.483 216.728 123.651 214.026 145.404C212.867 154.285 212.996 161.621 214.154 175.779L215.699 194.442L209.649 210.531C202.956 228.422 198.709 244.511 198.709 252.362C198.58 258.54 194.075 267.936 189.442 271.412C187.125 273.213 183.264 274.114 176.571 274.629C171.422 274.887 166.531 275.788 165.63 276.431C164.858 277.075 163.7 280.035 163.313 282.867C162.799 285.827 160.611 292.005 158.551 296.639C156.363 301.272 154.432 307.837 154.304 311.183C154.046 315.559 152.888 318.52 150.571 321.351C147.997 324.44 147.225 326.629 147.225 331.648V337.955L134.868 346.965C115.69 361.252 99.9876 378.242 83.5126 403.083C63.1763 433.33 41.8103 484.299 34.7312 518.794C29.0679 546.595 28.6818 582.248 33.7015 598.08C36.9193 607.991 44.3845 617.258 52.2359 621.248C58.9288 624.723 69.4831 625.753 77.2058 623.822C86.2156 621.505 101.017 613.783 111.572 605.931C116.591 601.941 124.571 596.407 129.205 593.446C149.541 580.318 238.094 533.596 257.659 525.744C281.599 516.091 256.5 521.754 218.917 534.368C193.432 542.992 170.006 552.387 154.432 560.239L145.423 564.744L147.868 561.14C171.165 525.616 188.669 482.626 202.956 426.122C209.649 399.736 211.58 388.281 211.58 375.539C211.58 369.489 212.61 363.697 214.798 357.39C216.471 352.242 217.629 346.579 217.243 344.648C216.857 342.46 219.045 333.965 223.164 321.866C226.768 311.183 229.986 301.401 230.372 299.985C230.887 298.183 229.213 294.966 225.095 289.688C219.431 282.481 219.045 281.58 219.818 276.174C221.233 265.62 230.887 261.115 237.58 267.808C239.382 269.481 244.659 277.847 249.55 286.342C257.53 300.5 261.005 305.391 275.163 321.866C280.054 327.529 280.054 327.787 278.638 333.321C275.163 347.222 277.995 361.767 285.203 366.786C290.351 370.39 299.232 369.361 311.846 363.697C318.153 360.866 323.816 358.549 324.588 358.549C325.232 358.549 328.063 362.796 330.638 367.816C333.341 372.964 341.192 386.994 348.014 399.093C365.261 429.34 367.32 433.33 367.32 437.449C367.32 447.231 376.459 456.369 386.241 456.369C390.36 456.369 392.033 455.726 393.062 453.924C396.666 447.102 392.676 439.637 383.023 434.874C379.162 433.072 375.429 430.241 374.528 428.825C373.627 427.28 368.994 418.914 364.103 410.033C359.34 401.152 354.32 392.142 353.033 390.083L350.717 386.222L359.984 386.093C367.835 386.093 370.924 385.321 380.191 381.202C403.874 370.648 444.676 354.559 460.893 349.41C470.289 346.321 477.754 343.747 477.497 343.49C476.081 341.945 432.448 351.727 405.547 359.45C404.003 359.965 405.805 356.876 410.438 350.697C419.448 338.727 432.577 312.213 439.27 292.649C453.171 251.976 456.002 216.709 446.992 198.819C443.775 192.383 436.567 186.334 430.775 185.304C421.25 183.502 403.359 189.809 391.775 198.947C387.013 202.68 387.013 202.68 381.607 200.621C375.172 198.046 374.914 196.116 379.548 182.086C383.924 169.215 384.825 168.057 392.419 167.027C397.31 166.383 399.112 165.482 400.142 163.294C400.914 161.492 402.973 160.205 405.676 159.69C409.28 159.047 410.696 159.433 413.528 162.136C415.458 163.938 418.161 165.482 419.577 165.482C423.052 165.482 434.507 159.69 438.626 155.829C446.091 149.007 440.814 136.008 428.201 130.473C424.082 128.671 420.349 128.156 412.112 128.414C401.944 128.8 400.656 128.542 386.112 122.493C367.706 115.028 363.073 114.255 357.41 117.731C348.4 123.394 347.628 129.958 355.608 133.176C357.667 134.077 361.142 137.037 363.33 139.869C367.835 145.275 369.895 146.047 372.597 142.829C375.043 139.869 383.409 141.285 393.963 146.304C401.429 149.908 404.775 152.869 403.102 154.671C402.716 155.057 399.627 153.77 396.28 151.968C392.033 149.78 388.043 148.75 383.667 148.75C379.162 148.75 376.845 148.106 375.687 146.562C374.786 145.404 373.498 144.889 372.726 145.404C370.538 146.691 370.796 152.611 373.112 155.186C374.914 157.116 374.528 159.047 369.251 173.977C365.132 185.561 362.429 191.353 360.112 193.284C358.182 194.829 357.281 196.63 357.667 197.789C358.053 198.947 354.707 210.403 350.073 223.531C345.568 236.531 340.677 250.689 339.519 255.065C337.974 260.342 336.301 263.303 334.499 264.075C332.44 264.976 331.925 266.52 331.796 271.412C331.667 274.887 331.153 278.104 330.509 278.748C328.836 280.293 310.173 284.025 299.747 284.797C291.123 285.441 290.609 285.312 287.262 281.708C282.628 276.946 274.52 261.887 259.975 231.125C243.243 195.858 243.886 198.432 248.005 187.235C249.936 182.086 253.025 176.294 254.827 174.363C257.659 171.403 257.916 170.502 256.758 168.185C255.857 166.641 254.698 165.482 254.183 165.482C252.896 165.482 256.5 150.423 261.777 133.948C267.183 117.087 269.371 112.454 272.203 111.81C273.619 111.424 275.549 109.493 276.708 107.434C279.282 102.414 282.371 102.543 300.391 108.592C348.915 124.938 363.716 120.691 392.419 82.3352C398.34 74.3551 405.161 66.375 407.607 64.5731C415.716 58.2662 431.29 54.6623 434.765 58.1375C436.953 60.1969 453.814 66.375 457.547 66.375C458.705 66.375 460.893 64.8305 462.18 63.0285L464.626 59.682L478.784 62.5137C486.507 64.0582 498.477 66.7611 505.427 68.5631L518.041 71.9096L521.516 69.3354C525.506 66.375 527.694 59.4246 526.407 54.2762C525.249 49.5139 521.773 48.3555 492.556 42.5635C472.22 38.4447 467.844 37.1576 467.329 35.227C466.556 32.6527 462.566 32.1379 460.378 34.326C459.477 35.227 456.646 35.227 450.982 33.9399C443.517 32.3953 442.874 32.524 441.2 34.8408C437.725 39.9893 436.696 40.6328 431.933 40.6328C425.369 40.6328 413.656 43.8506 406.191 47.5832C398.34 51.5733 392.805 57.494 377.746 77.5729C355.608 107.048 349.301 108.592 306.826 94.3053L286.876 87.6123L286.104 82.7213C285.718 80.0184 284.817 77.3154 284.173 76.8006C283.529 76.2858 276.708 73.3254 268.985 70.365C255.857 65.3453 254.956 65.2166 253.282 67.276C252.381 68.5631 251.48 70.365 251.48 71.3947C251.48 75.6422 226.768 67.1473 220.719 60.7117C215.313 54.9197 214.412 51.4445 209.521 14.8906C208.362 6.00958 206.56 -2.74276 205.659 -4.54471C203.857 -8.27733 193.947 -15.6139 192.66 -14.198C192.145 -13.8119 193.046 -12.5248 194.59 -11.3664C196.135 -10.3367 197.422 -8.92088 197.422 -8.40604C197.422 -6.99022 187.769 -11.7525 185.709 -14.198C184.551 -15.6139 180.561 -16 168.333 -16H152.373L153.789 -13.0396ZM186.868 -6.08924C186.868 -4.80213 187.254 -2.61405 187.769 -1.19823C188.798 1.37599 188.798 1.37599 186.095 -0.940805C183.521 -3.2576 183.392 -3.2576 181.204 0.0888822C179.145 3.30666 179.145 3.43537 181.462 5.36603C183.778 7.16798 183.778 7.29669 181.076 5.88087C177.472 4.20763 177.343 3.04923 180.947 -3.2576C183.907 -8.40604 186.996 -9.95057 186.868 -6.08924ZM189.699 11.0293C189.699 12.96 189.056 12.5738 186.353 9.61349C183.907 6.78185 183.907 6.78185 186.868 8.32638C188.412 9.09865 189.699 10.3858 189.699 11.0293ZM200.511 19.1381C201.541 21.5836 203.471 29.1776 204.501 36.2567C206.946 51.5733 211.323 61.3553 217.629 65.7315C220.204 67.4047 227.926 70.8799 234.877 73.5828C241.956 76.2858 247.619 78.9887 247.619 79.6322C247.619 83.4936 221.233 72.0383 214.412 65.0879C208.234 59.0385 205.659 53.1178 203.343 39.3457C201.412 27.633 200.125 22.0985 198.065 17.0787C196.392 13.0887 198.323 14.7619 200.511 19.1381ZM445.062 47.7119C443.775 52.3455 442.23 56.0781 441.715 56.0781C441.2 56.0781 441.587 53.6326 442.616 50.5436C443.517 47.5832 444.676 43.4645 445.19 41.4051C445.577 39.4744 446.349 38.0586 446.735 38.4447C447.121 38.9596 446.349 43.0783 445.062 47.7119ZM464.24 44.7516C462.309 51.5733 460.121 55.8207 461.794 49.6426C462.309 47.8406 462.953 44.4942 463.467 42.1774C463.854 39.9893 464.626 38.0586 465.269 38.0586C465.784 38.0586 465.398 41.1477 464.24 44.7516ZM439.398 46.9397C439.398 47.4545 435.923 48.4842 431.547 48.8703C419.062 50.2861 407.607 54.4049 401.944 59.5533C399.241 61.9988 392.29 70.365 386.756 77.959C360.627 113.354 350.588 116.444 307.47 102.414C284.43 94.9488 284.302 94.8201 285.846 93.2756C286.49 92.632 296.529 95.335 308.757 99.325C352.39 113.741 360.37 111.424 386.756 75.8996C401.944 55.3059 408.25 50.5436 425.884 46.6822C430.646 45.6525 439.398 45.7813 439.398 46.9397ZM460.636 57.2365C460.25 58.7811 458.834 59.9395 457.675 59.9395C455.616 59.8108 455.745 59.682 457.804 58.5236C458.963 57.8801 459.992 56.3356 459.992 55.1772C459.992 54.0188 460.378 53.3752 460.764 53.89C461.151 54.2762 461.151 55.8207 460.636 57.2365ZM453.943 58.2662C453.042 58.5236 451.497 58.5236 450.725 58.2662C449.824 57.8801 450.468 57.6227 452.27 57.6227C454.071 57.6227 454.715 57.8801 453.943 58.2662ZM280.955 78.7313C281.985 79.1174 282.371 79.6322 281.985 80.0184C281.213 80.9193 259.332 73.068 257.272 71.266C256.629 70.6225 261.262 71.9096 267.569 74.0977C274.005 76.4145 279.926 78.4738 280.955 78.7313ZM252.51 88.3846C250.966 91.2162 249.421 93.0182 249.164 92.2459C248.777 91.0875 253.926 83.1074 255.084 83.1074C255.342 83.1074 254.183 85.4242 252.51 88.3846ZM277.223 95.8498C277.223 96.4934 276.193 98.1666 275.035 99.7111C272.846 102.285 272.46 102.285 266.926 100.483C263.193 99.1963 262.421 98.6815 264.995 99.0676C267.183 99.4537 269.886 100.097 271.044 100.483C272.718 101.127 273.747 100.483 274.777 98.0379C276.45 94.5627 277.223 93.7904 277.223 95.8498ZM253.926 103.315C253.926 104.602 250.322 116.057 245.946 128.8C238.094 151.582 237.837 151.968 233.203 154.156C228.441 156.473 225.996 160.849 227.411 164.71C227.798 165.611 227.54 167.027 226.897 167.671C226.253 168.314 224.709 171.918 223.293 175.779L220.976 182.858L220.075 168.057C219.045 150.681 221.105 136.136 226.253 124.938C230.114 116.315 241.698 104.345 247.748 102.671C253.926 100.87 254.055 100.87 253.926 103.315ZM255.857 124.424C249.292 146.047 244.401 158.661 241.441 161.621C239.768 163.294 239.639 163.294 240.54 160.978C241.184 159.562 245.56 146.691 250.322 132.275C259.203 105.889 260.233 103.058 261.262 104.087C261.649 104.473 259.203 113.612 255.857 124.424ZM374.399 177.324C371.696 185.304 369.122 192.383 368.479 193.155C367.835 193.799 369.122 189.165 371.182 182.858C373.37 176.423 375.687 169.086 376.459 166.255C377.231 163.552 378.132 161.621 378.518 162.007C378.904 162.393 376.974 169.344 374.399 177.324ZM241.57 174.235C239.639 174.75 233.075 171.403 230.887 168.829C229.857 167.542 231.916 168.185 236.164 170.245C240.025 172.304 242.471 173.977 241.57 174.235ZM435.923 202.551C441.072 207.442 442.874 211.304 443.903 220.313C445.577 235.501 438.755 272.312 429.745 296.124C424.983 308.866 413.399 331.391 405.161 343.876C398.34 354.301 385.726 367.301 379.033 370.648C368.736 376.053 359.984 374.252 355.093 365.757C351.618 359.707 348.786 346.193 350.073 341.302C350.459 339.5 350.717 337.955 350.459 337.955C350.202 337.955 347.113 338.856 343.637 339.886C336.558 342.074 333.855 342.331 333.855 340.787C333.855 340.272 337.717 338.47 342.608 336.797C347.37 335.252 351.875 333.579 352.776 333.321C353.677 332.935 354.063 333.579 353.548 335.252C352.519 339.113 355.479 354.43 358.439 360.093C363.202 369.489 371.053 369.747 382.894 360.737C395.122 351.47 401.686 342.46 414.042 318.005C423.31 299.342 426.527 290.203 434.25 259.313C441.072 231.897 442.23 220.571 438.884 212.591C433.864 200.749 422.28 201.521 404.775 214.907C398.34 219.927 396.924 220.442 395.637 218.897C393.577 216.323 394.092 215.422 400.656 209.888C415.329 197.789 428.072 195.086 435.923 202.551ZM370.667 202.809C371.568 202.809 373.627 205.125 375.043 207.828C376.459 210.66 380.191 216.709 383.409 221.343C390.231 230.996 409.795 271.025 407.864 271.025C407.478 271.025 404.518 265.362 401.043 258.412C389.587 235.244 368.994 207.828 364.489 209.63C363.073 210.145 359.34 219.67 353.677 237.174C348.915 251.847 344.538 264.461 343.895 265.105C343.251 265.877 342.35 265.877 341.449 264.976C340.42 263.946 342.865 255.065 349.944 233.571C355.479 216.967 360.241 202.937 360.499 202.294C360.885 201.779 362.944 201.65 365.004 202.036C367.192 202.422 369.766 202.809 370.667 202.809ZM383.409 205.512C383.409 206.412 382.508 207.442 381.479 207.571C378.904 207.957 374.528 204.611 375.558 203.066C376.716 201.135 383.409 203.323 383.409 205.512ZM221.233 247.085C224.966 254.422 224.966 254.55 222.52 256.481C219.174 258.927 210.293 257.897 208.105 254.808C205.531 251.204 206.045 246.055 211.194 224.818L216.085 204.868L216.857 222.244C217.501 237.947 217.887 240.135 221.233 247.085ZM246.203 212.977C249.55 220.828 249.55 221.729 246.203 223.402C244.144 224.561 243.758 225.719 244.401 228.165C244.787 229.838 253.282 245.669 263.193 263.045C280.183 292.906 288.292 304.49 292.282 304.49C294.856 304.49 295.757 308.094 293.955 310.282C293.054 311.312 290.48 312.213 288.163 312.213C281.728 312.213 276.193 305.52 253.411 270.639C245.56 258.54 238.867 252.491 231.53 251.204C227.926 250.432 227.025 249.788 227.025 247.214C227.025 244.254 237.065 214.521 239.896 209.244C241.956 205.383 243.114 206.026 246.203 212.977ZM433.735 211.947C436.696 215.165 437.596 228.551 435.795 242.065C434.636 250.303 434.507 249.531 434.765 233.313L434.894 215.422L431.29 212.333C429.23 210.531 428.458 209.244 429.488 209.244C430.517 209.244 432.319 210.403 433.735 211.947ZM427.814 214.393L432.062 218.383L431.29 238.59C430.775 250.174 429.616 261.758 428.458 265.877C427.428 269.738 426.527 274.372 426.527 276.174C426.399 277.976 425.369 282.609 424.211 286.471L421.894 293.421L418.676 287.758C414.815 281.194 410.438 268.709 411.597 267.55C411.983 267.164 411.339 266.134 410.181 265.233C409.151 264.461 408.122 261.887 407.993 259.828C407.993 257.639 407.478 256.095 406.963 256.352C406.062 256.996 393.062 233.184 393.062 230.61C393.062 229.709 394.478 228.293 396.28 227.521C398.082 226.749 399.498 225.59 399.498 224.947C399.498 223.66 410.438 215.165 415.716 212.462C421.121 209.759 423.181 210.016 427.814 214.393ZM367.964 218.254C368.35 219.541 368.093 223.145 367.32 226.234C365.904 231.511 363.845 237.174 349.944 274.629C346.727 283.382 342.093 297.54 339.647 306.163C337.202 314.658 334.628 322.252 333.984 322.896C333.341 323.539 332.44 321.866 331.925 318.648C331.281 314.787 330.252 312.985 327.806 311.827C323.945 310.025 321.885 312.342 322.786 317.619C323.43 320.837 323.044 321.223 320.083 321.223C316.994 321.223 316.866 321.094 318.668 318.906C321.885 315.173 327.935 294.193 326.262 292.52C325.232 291.49 320.856 291.877 309.787 294.065C292.282 297.411 289.965 297.025 284.044 289.431C278.124 281.708 257.401 245.412 258.431 244.382C258.688 244.125 264.223 253.263 270.53 264.847C276.965 276.431 283.529 287.114 285.074 288.787C288.42 292.52 292.024 292.134 319.697 285.698C329.865 283.382 338.489 281.708 338.875 282.095C339.261 282.481 337.717 288.015 335.4 294.579C328.707 313.5 330.766 313.243 337.845 294.193C341.449 284.669 345.182 274.758 346.212 272.312C347.113 269.867 347.885 266.778 348.014 265.362C348.014 264.075 351.489 252.362 355.865 239.362C363.459 216.323 365.904 211.818 367.964 218.254ZM387.785 239.877C388.686 241.551 387.013 245.026 380.063 255.58C375.3 263.045 370.409 271.154 369.508 273.6C368.479 276.045 366.033 281.966 364.103 286.728C356.38 306.035 353.934 303.589 360.885 283.253C366.805 266.134 373.241 252.62 379.805 243.61C384.696 237.046 385.855 236.402 387.785 239.877ZM396.795 256.095C403.617 271.798 403.617 274.629 396.666 277.332C393.835 278.362 392.934 278.233 391.904 276.431C390.874 274.629 390.617 274.887 390.874 277.976C391.261 283.639 388.815 283.253 381.35 276.431C374.657 270.253 374.528 269.996 376.201 266.392C378.389 261.372 389.587 244.125 390.617 243.996C391.132 243.996 393.835 249.402 396.795 256.095ZM432.577 258.412C432.191 259.441 431.804 259.055 431.804 257.639C431.676 256.224 432.062 255.451 432.448 255.966C432.834 256.352 432.963 257.511 432.577 258.412ZM242.857 264.847C245.174 267.936 250.837 276.431 255.342 283.896C265.124 300.243 275.292 314.015 284.817 324.312C290.094 329.975 290.866 331.262 287.906 329.074C281.213 324.569 266.797 305.391 255.213 285.956C249.292 276.045 241.956 265.491 238.867 262.402C235.906 259.313 234.491 257.382 235.906 258.154C237.322 258.798 240.411 261.887 242.857 264.847ZM208.105 267.035C207.461 267.936 200.897 262.659 200.125 260.6C199.867 259.699 201.669 260.6 204.115 262.659C206.56 264.847 208.362 266.778 208.105 267.035ZM206.689 274.501C209.135 277.204 214.283 284.154 217.887 289.946L224.58 300.5L221.748 306.035L218.788 311.569L217.758 304.619C215.827 291.748 205.016 277.075 196.135 275.273L192.402 274.629L195.234 272.184C199.352 268.709 201.541 269.223 206.689 274.501ZM339.776 274.114C342.479 276.174 342.608 275.916 335.786 278.104C333.727 278.748 333.341 277.59 334.628 274.372C335.657 271.798 336.558 271.798 339.776 274.114ZM409.151 276.946C411.854 283.382 411.726 283.51 406.191 284.154L401.171 284.54L403.874 278.491C405.419 275.144 406.706 272.312 406.835 272.312C407.092 272.312 408.122 274.372 409.151 276.946ZM399.498 280.936C399.498 281.58 398.983 282.738 398.34 283.768C397.31 285.312 396.795 285.312 395.122 284.025C393.963 283.124 393.449 281.837 393.835 281.194C394.607 279.778 399.498 279.649 399.498 280.936ZM390.102 285.827C391.132 288.53 390.36 288.916 386.884 287.629C385.211 286.986 384.31 285.956 384.696 285.184C385.855 283.253 389.201 283.639 390.102 285.827ZM414.171 288.401C415.329 290.075 416.23 291.877 416.23 292.263C416.23 293.807 406.835 292.778 403.102 290.847C398.597 288.53 399.498 286.857 405.934 286.085C408.379 285.827 410.825 285.441 411.211 285.441C411.726 285.312 413.013 286.599 414.171 288.401ZM195.491 287.887C201.927 289.688 208.362 296.124 210.164 302.688C211.451 307.837 210.936 311.827 207.333 325.728C206.174 329.975 204.63 335.767 203.986 338.599C202.828 343.232 202.699 342.975 203.343 335.767C203.857 328.302 203.6 327.529 200.125 323.539C196.392 319.421 196.135 319.292 185.58 319.292C177.986 319.292 173.61 319.936 170.521 321.609C168.076 322.767 165.759 323.539 165.502 323.153C164.601 322.381 169.62 307.837 174.383 297.154C177.343 290.461 178.63 289.045 182.234 287.887C188.026 286.213 189.57 286.213 195.491 287.887ZM394.35 287.758C394.35 288.401 393.835 289.045 393.062 289.045C392.419 289.045 391.775 288.401 391.775 287.758C391.775 286.986 392.419 286.471 393.062 286.471C393.835 286.471 394.35 286.986 394.35 287.758ZM418.805 304.748C415.201 312.985 403.746 333.708 399.498 339.757C395.894 345.034 386.627 354.559 386.627 353.143C386.627 352.628 387.785 350.183 389.33 347.737C393.32 340.915 391.389 342.074 386.756 349.153C382.508 355.846 376.587 360.479 370.023 362.41C366.677 363.311 365.39 363.054 363.459 361.123C359.984 357.648 359.083 352.886 360.756 348.123C362.687 342.589 362.429 341.559 360.241 346.321L358.568 350.183L357.023 345.034C356.251 342.203 355.736 337.955 355.994 335.51C356.38 331.648 357.41 330.619 366.033 325.47C371.31 322.381 378.261 318.648 381.479 317.104C384.696 315.688 388.3 313.629 389.587 312.47C390.746 311.441 392.162 310.797 392.548 311.312C392.934 311.698 391.775 312.985 389.973 314.144C388.171 315.431 386.627 317.361 386.627 318.648C386.627 321.223 392.29 326.371 395.122 326.371C396.023 326.371 397.053 327.658 397.31 329.203C397.825 331.777 397.825 331.648 398.082 328.559C398.082 326.629 399.112 324.698 400.142 324.312C402.845 323.153 402.587 318.134 399.498 315.431C395.122 311.441 396.28 308.995 403.102 307.193C406.448 306.421 411.597 304.233 414.3 302.56C417.131 300.886 419.834 299.342 420.349 299.342C420.864 299.342 420.092 301.787 418.805 304.748ZM318.153 304.233C318.41 305.134 317.767 305.777 316.866 305.777C315.836 305.777 312.876 306.936 310.044 308.352C303.866 311.441 303.48 311.441 302.45 308.738C301.292 305.777 302.836 304.619 309.529 303.332C316.093 302.045 317.38 302.173 318.153 304.233ZM392.548 305.134C392.805 306.292 344.152 331.262 336.044 334.094C332.568 335.252 332.44 335.123 332.826 332.034C333.212 329.074 334.628 328.173 344.152 324.569C350.202 322.252 362.301 316.589 371.182 311.955C386.37 303.847 391.775 302.173 392.548 305.134ZM359.083 309.767C357.41 313.757 353.677 316.975 352.261 315.559C351.875 315.173 352.004 312.856 352.39 310.282C353.162 306.421 353.806 305.777 357.023 305.777C360.756 305.777 360.756 305.777 359.083 309.767ZM369.251 308.094C368.479 308.738 366.419 309.767 364.489 310.668C361.657 311.827 360.885 311.827 360.885 310.411C360.885 307.837 362.301 307.064 366.548 307.064C368.607 307.064 369.895 307.579 369.251 308.094ZM195.234 323.153C197.808 324.955 199.996 326.757 199.996 327.143C199.996 327.529 198.452 326.757 196.521 325.341C194.461 324.054 191.759 322.252 190.343 321.48C188.927 320.708 188.412 319.936 189.056 319.936C189.828 319.936 192.531 321.351 195.234 323.153ZM189.184 327.015C190.858 328.044 192.273 329.589 192.273 330.361C192.273 331.391 191.63 331.262 190.343 330.232C188.927 328.945 185.323 328.817 177.214 329.46C167.432 330.232 166.402 330.104 167.818 328.302C171.551 323.797 183.135 323.025 189.184 327.015ZM158.809 331.52C160.224 332.42 159.967 332.935 157.135 333.965C152.373 335.767 152.373 335.767 152.373 332.807C152.373 330.104 155.462 329.331 158.809 331.52ZM287.391 340.272C287.391 342.203 286.876 344.905 286.232 346.321C285.46 348.252 285.074 347.094 285.074 342.074C284.945 337.826 285.46 335.51 286.232 336.024C287.005 336.411 287.519 338.341 287.391 340.272ZM300.004 351.598C303.995 356.876 304.123 357.262 301.678 358.549C298.46 360.351 292.282 360.222 290.351 358.291C288.549 356.489 288.42 351.47 290.094 347.608C290.866 345.549 291.252 346.579 292.024 351.727C292.668 355.975 293.569 358.549 294.727 358.549C297.688 358.549 297.816 356.361 295.242 350.697C292.411 344.391 291.767 339.5 294.341 343.618C295.242 344.905 297.816 348.509 300.004 351.598ZM184.679 345.42C188.412 348.638 187.254 351.985 182.749 351.212C172.323 349.153 154.561 358.935 138.215 375.539C128.304 385.578 114.017 404.756 108.74 414.795C106.809 418.399 106.294 418.399 101.79 414.795L98.1857 411.964L104.75 401.924C108.225 396.519 111.829 392.014 112.473 392.014C113.245 392.014 113.76 391.241 113.76 390.212C113.76 387.637 130.363 369.747 140.274 361.638C150.185 353.4 155.848 349.925 165.115 346.193C173.868 342.46 180.689 342.331 184.679 345.42ZM335.143 352.757C335.143 354.816 335.786 358.935 336.558 361.767C338.232 367.945 352.004 395.618 363.974 416.984C368.736 425.35 372.211 432.558 371.825 432.944C370.924 433.845 370.667 433.587 366.033 424.32C363.716 419.686 356.122 405.786 349.043 393.429C341.964 380.945 334.499 367.559 332.44 363.569C330.509 359.45 328.063 355.975 327.162 355.717C326.133 355.331 326.905 353.529 329.351 350.311C333.341 345.034 335.143 345.806 335.143 352.757ZM206.174 351.727C209.778 352.628 209.907 351.47 202.699 379.529C199.739 390.727 197.422 401.023 197.422 402.439C197.422 403.984 196.006 405.528 193.947 406.429C189.056 408.489 188.927 408.746 190.986 410.033C193.689 411.706 191.115 418.271 187.511 418.786L184.808 419.172L187.254 407.845C188.541 401.667 190.986 391.241 192.788 384.935C195.234 375.667 199.996 353.787 199.996 351.341C199.996 350.569 202.828 350.697 206.174 351.727ZM182.62 361.638C188.798 364.212 188.798 364.083 182.749 390.727C180.432 401.023 177.472 413.895 176.185 419.429C174.125 428.825 173.61 429.726 168.204 433.845C161.769 438.736 160.353 438.864 162.67 434.488C163.442 432.944 163.957 431.399 163.7 431.142C163.313 430.884 161.898 433.072 160.353 436.161C157.264 442.211 154.561 445.043 145.937 450.835C142.72 453.023 137.056 457.528 133.324 460.874C129.72 464.22 126.631 466.409 126.631 465.894C126.631 465.379 125.472 466.022 124.057 467.31C120.453 470.527 117.621 468.983 117.621 463.577C117.621 461.131 118.265 458.686 119.037 458.3C119.809 457.785 120.067 456.627 119.68 455.597C119.294 454.696 119.552 453.537 120.324 453.151C122.512 451.736 128.819 437.835 131.136 429.34C132.423 424.706 134.997 414.281 136.928 406.172C140.274 391.628 144.136 380.687 145.294 381.974C145.551 382.232 144.65 385.707 143.235 389.568C139.759 398.578 139.373 407.588 142.462 410.934C145.551 414.409 145.294 415.954 139.631 431.528C136.799 439.122 134.611 445.557 134.868 445.815C135.512 446.33 142.334 428.825 147.868 412.607C164.214 365.113 162.799 368.331 168.204 367.172C170.779 366.529 174.511 366.4 176.185 366.786C178.887 367.43 179.274 368.073 178.115 370.133C176.185 373.865 176.571 374.895 178.759 371.806C179.917 370.262 181.59 369.232 182.491 369.618C184.937 370.519 185.967 366.915 183.907 364.212C181.333 360.737 173.996 361.38 162.799 366.143C151.215 371.034 149.155 370.648 160.224 365.628C174.125 359.45 176.313 359.064 182.62 361.638ZM131.007 404.885C125.73 417.498 125.086 419.686 126.631 422.132C127.918 424.32 127.918 424.578 126.502 423.162C125.601 422.389 124.443 421.617 123.928 421.617C123.413 421.617 120.839 427.538 118.136 434.617C115.433 441.825 112.473 447.874 111.572 448.26C110.671 448.646 109.898 449.676 109.898 450.706C109.898 451.736 107.839 454.825 105.265 457.656C100.889 462.419 100.631 463.191 102.047 466.28C103.334 468.983 103.205 470.012 101.532 471.814C99.6015 473.874 99.8589 474.26 104.75 476.834C111.314 480.181 112.086 480.181 115.176 476.577C116.463 475.032 117.492 474.389 117.621 475.29C117.621 476.062 116.849 477.606 115.819 478.636C114.661 479.666 114.275 481.725 114.661 483.398C115.176 485.072 114.661 486.745 113.631 487.517C112.344 488.418 112.601 488.547 114.789 487.903C117.492 487.131 117.621 487.517 117.621 493.438C117.621 498.071 116.72 501.032 114.275 504.764L110.928 509.784L114.275 506.695L117.621 503.606V507.339C117.621 509.398 118.522 513.645 119.552 516.863L121.354 522.655L120.581 514.675C119.809 506.824 119.938 506.566 124.185 502.576C127.017 500.002 127.532 498.972 125.73 500.002C124.185 500.774 122.512 502.061 122.126 502.705C120.324 505.537 118.908 502.19 118.908 495.497C118.908 488.547 118.908 488.547 122.512 489.319C124.443 489.834 127.918 490.992 130.363 491.893C133.967 493.438 134.353 493.953 133.066 495.626C131.779 497.17 131.908 497.557 133.581 497.557C134.74 497.557 137.443 499.487 139.631 501.933C141.69 504.378 144.65 506.566 146.195 506.824C148.64 507.21 148.512 507.982 142.848 518.794C139.502 525.101 134.611 533.081 132.037 536.685L127.403 542.992L125.859 538.615L124.185 534.239L124.958 539.774C125.601 544.536 125.086 546.081 121.354 551.615C118.136 556.249 116.334 557.793 114.789 557.278C113.245 556.764 112.473 557.278 112.473 558.823C112.473 562.298 93.0372 578.516 84.7997 581.991C81.4533 583.407 80.2949 583.407 80.2949 582.248C80.2949 581.09 79.9087 581.09 78.7503 582.248C77.8494 583.149 75.79 583.793 74.1167 583.793C71.7999 583.793 70.5128 582.506 68.4535 577.872C67.0376 574.526 66.1367 570.278 66.3941 568.219C66.7802 566.16 66.5228 564.486 65.8792 564.486C64.5921 564.486 64.5921 557.407 65.6218 546.595C66.5228 538.873 66.7802 538.358 72.4435 534.111C75.6613 531.536 79.78 527.675 81.3246 525.487L84.4136 521.368L80.681 525.358C78.7503 527.546 74.889 530.893 72.3148 532.823C66.2654 537.328 66.2654 537.2 71.4138 515.834C75.6613 498.586 78.2355 491.121 79.9087 491.121C80.4236 491.121 80.9384 489.577 81.0671 487.517C81.3246 480.438 94.5818 451.221 106.809 430.627C120.71 407.459 135.769 386.479 136.67 389.182C136.928 389.954 134.353 397.033 131.007 404.885ZM196.778 416.726C195.491 423.162 183.392 460.874 180.689 467.438C179.274 470.527 177.729 473.102 177.085 473.102C176.442 473.102 178.373 467.052 181.333 459.587C184.422 452.122 189.056 438.478 191.63 429.34C196.263 413.38 198.58 407.716 196.778 416.726ZM102.176 416.726L105.651 419.686L101.79 427.409C99.7302 431.657 97.7996 435.389 97.5421 435.647C96.8986 436.419 91.8788 431.785 90.5917 429.211C89.8195 427.924 90.7205 425.092 93.2947 420.587C95.354 416.855 97.4134 413.895 97.7996 413.895C98.1857 413.895 100.116 415.182 102.176 416.726ZM189.699 423.677C189.699 424.063 186.481 434.617 182.491 447.102C175.927 467.824 171.036 479.28 169.492 477.864C169.234 477.478 170.779 471.814 172.967 465.121C175.155 458.557 178.501 447.102 180.175 439.637C182.105 431.657 184.293 425.478 185.452 424.449C187.769 422.776 189.699 422.389 189.699 423.677ZM90.9779 452.765C77.2058 484.042 67.0376 516.992 63.4337 542.477C60.4734 563.199 64.0773 584.05 71.7999 591.773C75.2751 595.248 76.3048 595.634 81.7107 595.119C90.5917 594.219 100.889 587.654 113.888 574.654C131.136 557.407 147.611 531.279 166.531 491.25C170.779 482.24 177.472 473.23 178.887 474.646C179.917 475.676 170.006 499.745 162.155 515.319C145.809 548.011 133.71 566.288 117.364 583.149C105.007 596.02 93.8095 603.486 83.3839 605.803C77.3345 607.218 76.1761 607.09 71.0277 604.644C45.4142 592.03 48.5033 527.546 78.6216 451.864C82.4829 441.953 86.3443 433.072 87.1165 432.171C88.1462 430.756 89.3046 431.399 92.6511 435.003L96.7699 439.508L90.9779 452.765ZM167.818 451.607C161.769 472.329 156.492 484.171 154.304 481.854C153.403 480.953 160.997 453.151 163.571 448.003C165.502 444.142 170.521 438.092 171.165 438.736C171.422 438.864 169.878 444.785 167.818 451.607ZM154.561 457.914C151.343 471.3 148.512 479.923 147.482 479.022C147.096 478.636 147.868 475.933 149.155 473.102C150.442 470.27 151.086 467.567 150.7 467.052C150.185 466.666 149.799 466.795 149.799 467.567C149.799 468.339 148.254 469.884 146.452 471.042C143.235 473.23 143.106 473.23 138.858 468.468C134.997 464.349 134.611 464.092 135.254 466.795C135.641 468.468 137.443 471.3 139.373 472.973C141.304 474.646 141.819 475.676 140.66 475.29C139.373 474.903 135.898 473.874 132.938 472.973C125.859 471.042 123.67 469.24 128.175 469.24C131.908 469.24 134.096 467.181 131.522 466.28C130.492 466.022 131.522 464.864 133.71 463.706C135.898 462.547 141.69 458.428 146.581 454.567C151.601 450.706 155.977 447.488 156.363 447.488C156.878 447.359 156.106 452.122 154.561 457.914ZM151.215 490.091C157.521 493.695 157.779 495.497 151.601 492.279C146.066 489.577 145.036 489.963 142.591 495.497C141.69 497.685 140.918 498.715 140.789 497.814C140.789 495.755 144.65 487.26 145.551 487.26C145.937 487.26 148.512 488.547 151.215 490.091ZM149.799 504.121C149.799 504.764 149.284 505.279 148.512 505.279C147.868 505.279 147.225 504.378 147.225 503.22C147.225 502.19 147.868 501.675 148.512 502.061C149.284 502.448 149.799 503.349 149.799 504.121ZM153.017 511.329C147.353 523.685 131.908 548.011 130.363 546.982C129.72 546.595 131.136 543.506 133.452 540.289C135.898 536.942 142.076 526.903 147.225 517.764C152.373 508.754 156.749 501.418 157.007 501.418C157.264 501.418 155.462 505.794 153.017 511.329ZM124.7 557.536C122.769 560.882 117.621 567.061 113.245 571.437C101.79 582.892 81.9681 592.417 76.5622 589.07C75.4038 588.298 77.5919 587.526 82.8691 586.625C87.2453 585.852 92.5224 584.179 94.4531 582.892C101.661 578.258 117.235 563.714 121.997 557.021C127.918 548.784 129.591 549.041 124.7 557.536Z" fill="black"/>
<path d="M417.389 260.342C415.716 262.402 415.844 262.53 417.904 260.857C419.963 259.184 420.607 258.154 419.577 258.154C419.319 258.154 418.29 259.184 417.389 260.342Z" fill="black"/>
<path d="M385.469 260.214C385.469 261.629 385.855 262.016 386.241 260.986C386.627 260.085 386.498 258.927 386.112 258.54C385.726 258.026 385.34 258.798 385.469 260.214Z" fill="black"/>
<path d="M393.963 337.312C392.805 339.757 392.033 341.816 392.419 341.816C393.32 341.816 397.181 333.965 396.666 333.321C396.28 333.064 395.122 334.866 393.963 337.312Z" fill="black"/>
<path d="M132.68 374.123C133.581 375.024 134.611 375.41 134.997 375.024C135.383 374.638 134.74 373.865 133.453 373.479C131.651 372.707 131.522 372.836 132.68 374.123Z" fill="black"/>
<path d="M115.047 392.657C115.047 393.687 115.562 394.588 116.205 394.588C116.849 394.588 117.621 393.687 118.136 392.657C118.522 391.499 118.136 390.727 116.978 390.727C115.948 390.727 115.047 391.628 115.047 392.657Z" fill="black"/>
<path d="M106.809 404.499C106.423 404.885 106.423 405.786 106.809 406.3C107.71 407.845 111.186 407.716 111.186 406.3C111.186 404.885 107.839 403.469 106.809 404.499Z" fill="black"/>
<path d="M161.512 413.38C161.512 414.795 161.898 415.182 162.284 414.152C162.67 413.251 162.541 412.093 162.155 411.706C161.769 411.192 161.383 411.964 161.512 413.38Z" fill="black"/>
<path d="M160.482 425.479C160.482 429.34 160.739 431.013 160.997 428.954C161.254 427.023 161.254 423.934 160.997 421.875C160.739 419.944 160.482 421.617 160.482 425.479Z" fill="black"/>
<path d="M167.303 420.974C166.145 424.32 166.402 425.092 167.947 422.518C168.719 421.231 169.105 419.815 168.719 419.558C168.462 419.172 167.818 419.815 167.303 420.974Z" fill="black"/>
<path d="M132.68 448.904C127.789 461.131 126.631 464.478 127.66 463.448C129.205 461.775 134.482 448.389 133.839 447.745C133.581 447.488 133.066 448.003 132.68 448.904Z" fill="black"/>
<path d="M105.136 489.448C107.453 490.091 107.453 490.091 105.136 492.794C103.334 495.111 103.591 494.982 106.68 492.408C108.869 490.606 110.799 489.062 111.057 488.804C111.314 488.676 109.641 488.676 107.195 488.676C104.75 488.804 103.849 489.062 105.136 489.448Z" fill="black"/>
<path d="M100.76 498.458C99.0867 500.517 99.2154 500.646 101.275 498.972C102.433 498.071 103.463 497.042 103.463 496.784C103.463 495.755 102.433 496.398 100.76 498.458Z" fill="black"/>
</svg>
