<svg width="576" height="500" viewBox="0 0 576 500" fill="none" xmlns="http://www.w3.org/2000/svg">
<g clip-path="url(#clip0_107_64)">
<path d="M66.037 213.284C64.0251 206.074 144.696 128.458 178.329 70.3456C181.246 65.3046 186.614 62.1374 192.435 62.3525L417.299 70.6613C423.162 70.878 428.361 74.4931 430.605 79.9141L505.668 261.25C507.163 264.862 507.189 268.916 505.739 272.548L430.69 460.561C428.415 466.261 422.896 470 416.759 470H168.452C162.315 470 156.821 466.337 154.597 460.618C126.607 388.631 68.0532 220.509 66.037 213.284Z" fill="#DDABAB"/>
<path d="M576.562 -45.3126C573.53 -37.3188 577.665 -34.0111 599.992 -27.6712C614.05 -23.5365 622.319 -19.6775 622.319 -17.4723C622.319 -10.8568 608.537 -12.7864 606.056 -19.6775C604.678 -23.2609 603.3 -24.3635 602.197 -22.7096C598.889 -17.4723 608.813 -10.3055 617.358 -11.4081C621.768 -12.2351 626.454 -11.1325 628.108 -8.92732C629.762 -6.9978 634.723 -5.34392 639.134 -5.34392C649.608 -5.34392 651.262 -1.20923 644.095 5.95757C639.134 10.9192 638.583 13.6757 640.236 23.3233C641.063 29.3875 642.442 39.0351 643.268 44.2724C643.82 49.5097 644.922 57.779 645.749 62.465C646.852 68.2536 645.749 72.1126 642.993 74.5934C640.788 76.523 638.858 82.0359 638.858 86.7219C638.858 93.613 636.102 98.299 626.178 107.671C619.287 114.562 599.716 136.614 582.902 157.012L552.581 193.673L544.863 168.037C540.453 153.704 534.388 124.761 531.356 103.536C528.324 82.3115 525.016 63.0163 524.189 60.5355C522.26 54.1956 535.215 44.548 548.446 42.6185C560.299 40.689 562.504 38.7595 558.921 33.2465C556.991 30.2144 548.446 29.3875 520.882 29.1118C501.035 29.1118 485.599 30.2144 486.426 31.317C486.977 32.4196 484.772 32.6952 480.913 31.8683C475.676 30.4901 472.919 31.5927 469.611 36.2786C461.618 47.8558 463.547 49.7853 484.772 49.7853C496.9 49.7853 503.516 50.8879 502.413 52.5418C501.586 54.1956 503.792 55.2982 507.375 55.2982C511.234 55.2982 514.817 56.9521 515.644 59.1573C516.471 61.3624 520.055 84.7924 523.362 111.254C528.875 153.704 529.978 159.217 534.388 158.114C537.972 157.012 539.901 160.044 543.485 171.897C548.446 188.711 548.998 197.532 545.69 199.737C544.312 200.564 541.004 194.224 538.523 185.679L533.561 170.243L525.568 182.922C521.157 190.089 517.298 195.878 516.747 195.878C516.196 195.878 510.407 193.397 504.067 190.089C497.452 187.057 487.528 184.025 482.016 183.198C473.195 182.371 472.919 182.371 478.983 184.852C485.048 187.333 484.772 187.333 476.503 186.23C471.541 185.403 464.65 184.576 461.342 184.576C457.207 184.301 457.759 183.749 463.823 182.095L472.092 179.89L463.823 179.615C459.413 179.615 447.009 181.268 436.258 183.474C425.784 185.679 416.687 187.608 416.412 187.608C415.861 187.608 415.585 185.128 415.585 182.095C415.585 174.102 402.905 174.377 400.976 182.371C399.597 187.884 397.944 188.16 378.373 187.057C366.52 186.23 358.802 186.781 361.007 187.884C362.936 189.262 367.898 190.365 371.757 190.365C380.853 190.365 383.059 192.57 379.751 198.91C376.994 203.596 376.443 203.596 365.142 198.634C348.052 190.64 329.859 191.467 319.109 200.288C307.807 209.936 301.743 222.34 303.948 230.885L305.602 237.776L313.045 227.853C320.211 218.481 333.994 209.66 341.712 209.66C344.468 209.66 344.468 210.487 341.16 212.692C337.853 214.897 338.68 215.173 344.193 214.07C348.327 213.243 355.218 214.622 361.558 217.654C369.552 222.064 372.033 222.34 373.135 219.308C374.238 216.827 379.475 220.41 389.674 229.782C406.764 245.494 423.027 275.815 430.47 305.034C435.707 325.707 435.983 328.188 431.572 328.188C429.367 328.188 426.059 319.918 423.303 308.617C413.931 269.475 380.302 217.654 370.103 226.199C367.898 228.128 364.315 228.955 362.11 228.128C359.353 227.026 358.526 227.853 359.629 230.609C361.283 235.019 356.321 236.122 353.564 231.712C352.738 230.058 349.705 228.955 347.225 228.955C344.193 228.955 345.295 230.609 350.808 233.917C358.25 238.603 359.353 238.603 362.385 234.744C364.59 231.987 365.693 231.436 365.969 233.641C365.969 241.359 337.577 251.834 332.891 246.045C332.064 244.943 327.929 241.084 323.795 237.5C316.352 230.885 316.352 230.885 316.352 236.673C316.352 244.943 330.41 251.834 341.987 249.353L350.532 247.424L343.641 256.796C333.442 270.302 331.237 276.091 340.333 265.065C359.353 241.635 360.731 241.359 347.225 263.135C338.128 278.02 328.481 304.758 326 322.124C324.07 336.182 319.384 339.489 318.833 327.361C318.557 322.675 318.282 322.399 317.179 325.983C316.352 329.015 313.32 330.944 309.185 330.944C302.846 330.944 302.57 330.117 302.846 314.957C302.846 306.412 304.499 291.251 306.429 281.328L310.012 263.411L312.218 274.988C313.32 281.604 315.525 286.841 317.179 286.841C318.833 286.841 319.109 291.803 318.006 299.796C317.179 307.239 317.731 314.957 319.109 317.162C321.038 320.194 321.865 316.611 321.865 305.585C321.865 289.046 311.942 256.796 308.083 261.206C305.326 264.238 299.814 300.348 299.814 315.508C299.814 323.226 298.711 328.188 296.506 328.188C290.442 328.188 297.057 331.771 307.256 333.976C413.104 356.304 443.149 360.438 454.727 354.65C461.618 351.618 464.374 359.887 458.586 365.4C456.105 367.881 454.175 371.189 454.175 372.567C454.175 375.048 448.111 374.772 419.72 370.637C414.758 370.086 413.104 370.362 416.136 371.74C420.271 373.394 420.271 374.772 416.963 382.49C414.758 387.452 412.001 391.586 410.348 391.586C408.969 391.586 408.418 393.792 408.969 396.272C409.796 399.305 404.835 407.85 397.117 417.497C385.539 431.831 383.886 433.209 380.853 428.799C374.238 419.702 374.238 404.817 380.853 384.695L387.193 365.4L379.475 360.714C375.065 357.958 371.481 354.374 371.481 352.445C371.481 350.791 370.655 349.964 369.828 350.791C369.001 351.893 369.552 354.926 371.206 357.682C373.135 361.541 372.86 367.054 370.379 376.702L366.796 390.208L364.59 376.702C363.212 367.054 363.488 362.919 365.969 361.265C367.898 360.163 361.558 357.958 350.808 356.028C340.609 354.099 331.513 353.272 330.686 354.374C329.859 355.201 330.41 355.752 332.064 355.752C333.718 355.752 335.923 361.541 337.026 368.708C339.507 386.349 351.084 415.016 361.283 429.35C371.481 443.684 368.449 448.921 357.424 435.965C345.571 421.632 335.372 398.202 330.41 373.118C326.276 351.893 325.449 350.515 318.006 349.137C313.596 348.034 309.461 348.034 308.634 348.861C307.807 349.688 309.185 350.24 311.666 350.24C315.25 350.24 316.352 352.996 316.904 363.195L317.179 376.426L319.109 364.022C321.038 350.24 322.416 352.445 327.378 376.15C329.308 384.971 332.891 397.375 335.648 403.715C340.333 415.016 340.333 415.016 333.442 425.491L326.276 436.241L318.557 426.869C308.91 415.292 303.121 396.824 300.916 369.259C299.262 351.618 299.814 347.483 302.846 347.483C305.878 347.483 305.878 346.932 302.57 344.727C296.506 340.592 290.166 341.143 293.474 345.278C295.954 348.31 300.64 391.035 300.365 406.196C300.089 408.952 302.019 416.119 304.224 422.459C306.429 428.799 307.532 434.312 306.705 435.139C302.846 439.273 291.82 389.381 290.442 360.438C289.89 349.413 288.512 338.387 287.409 335.355C286.307 332.598 286.307 329.566 287.685 328.464C289.063 327.637 290.442 319.918 290.993 311.649C291.544 303.38 293.474 288.77 295.679 279.123C297.884 269.475 299.814 258.174 299.814 253.488C299.814 249.077 301.192 245.494 303.397 245.494C305.602 245.218 305.326 244.116 302.294 241.911C299.814 239.981 295.679 234.744 293.198 230.333C290.442 225.648 289.339 224.545 290.442 227.577C294.852 240.532 294.576 246.321 289.339 258.725C284.102 271.129 279.967 292.354 276.384 326.534C274.73 341.97 274.73 342.797 280.243 341.143C284.102 340.316 286.031 341.143 286.031 343.624C286.031 346.932 280.794 348.586 270.319 348.31C268.39 348.034 267.563 349.137 268.39 350.515C269.217 351.893 273.351 352.996 278.037 352.996C285.204 352.996 286.031 353.823 286.031 362.368C286.031 393.792 301.743 446.164 317.455 466.838C338.404 494.127 374.789 490.268 409.245 456.639L426.611 439.549L435.156 451.402C440.117 457.742 448.111 466.011 453.348 469.594C458.586 473.453 462.72 477.312 462.72 478.139C461.893 484.479 464.374 485.306 486.702 485.306C507.099 485.306 513.164 484.204 525.016 478.415C537.696 472.075 559.472 451.953 569.947 436.517C572.703 432.658 578.216 430.177 586.485 429.074L598.889 427.42L611.569 446.44C618.736 457.19 623.698 466.287 622.595 466.838C621.768 467.389 622.319 467.665 623.973 467.113C625.903 466.838 630.037 469.319 633.621 473.178C636.929 476.761 646.852 483.101 655.121 487.236C668.352 493.576 674.968 494.954 702.257 495.781L733.956 496.883L746.36 507.909C776.681 534.922 819.131 546.224 866.542 540.435C936.556 531.615 996.922 478.691 1012.63 411.984C1018.42 387.176 1016.49 341.695 1008.78 319.918C994.993 280.777 973.217 251.558 941.793 230.058C910.094 208.557 890.247 202.769 848.9 202.769C830.432 202.769 815.272 201.942 815.272 200.564C815.272 199.461 821.06 198.359 828.503 198.359C835.945 198.083 838.426 197.256 834.291 196.705C829.605 195.878 826.297 193.397 825.471 189.814C824.644 186.781 822.714 184.852 821.611 185.679C816.926 188.711 813.066 183.198 812.24 172.448C811.688 164.454 814.169 155.909 821.06 141.575C830.157 122.005 830.708 121.729 838.702 123.383C854.689 126.966 860.478 125.037 870.952 112.633C893.555 86.4462 879.497 70.7344 842.009 80.382C824.092 84.7924 817.752 80.9333 805.348 58.0547C798.457 45.375 791.29 36.2786 785.226 32.4196C779.713 29.1118 776.681 28.2849 778.059 30.2144C779.438 32.9709 779.162 33.5222 777.232 32.1439C775.303 31.0414 773.925 27.7336 773.925 24.7015C773.925 19.1886 769.514 17.5347 767.861 22.4963C767.309 24.4259 759.315 21.3938 747.463 14.7782C736.713 8.71403 727.892 5.13063 727.616 6.78451C727.616 8.43839 726.514 12.5731 725.687 15.8808C724.033 21.3938 725.687 22.772 739.469 29.1118C757.937 37.1056 779.438 56.6765 779.438 65.2215C779.438 68.2536 775.854 75.9717 771.444 82.0359C750.219 111.53 710.802 126.415 682.41 115.94L672.211 112.081L687.648 106.017C721.828 91.9592 740.847 67.4266 734.783 44.548C730.924 29.9388 706.667 7.88709 687.923 1.54723C679.102 -1.20923 671.936 -5.06827 671.936 -6.72215C671.936 -11.6838 686.545 -24.0878 694.814 -26.293C700.603 -27.6712 704.738 -26.5687 711.077 -21.8827C718.52 -16.3698 719.071 -16.3698 716.315 -21.3314C714.661 -24.3635 711.353 -27.3956 708.872 -28.4982C695.917 -33.4598 674.968 -27.12 669.179 -16.3698C667.525 -13.3377 663.942 -10.8568 661.185 -10.8568C654.846 -10.8568 638.858 -28.4982 638.858 -35.1137C638.858 -37.5945 635.275 -41.7292 630.864 -44.21C623.973 -48.3447 622.319 -48.3447 619.012 -44.7613C615.428 -41.1779 612.672 -41.4535 598.338 -45.0369C577.94 -50.2742 578.492 -50.2742 576.562 -45.3126ZM631.967 -38.4214C632.794 -37.0432 632.518 -35.665 630.864 -35.665C629.486 -35.665 627.281 -37.0432 626.454 -38.4214C625.627 -40.0753 625.903 -41.1779 627.557 -41.1779C628.935 -41.1779 631.14 -40.0753 631.967 -38.4214ZM641.615 -14.9915L647.954 -8.10038H641.89C632.794 -8.10038 625.076 -13.062 626.73 -17.748C629.211 -23.8122 634.172 -22.7096 641.615 -14.9915ZM694.814 8.43839C701.981 11.7461 713.283 20.8425 720.174 28.2849C730.924 40.1377 732.578 43.7211 732.578 54.1956C732.578 64.6702 730.924 68.2536 721.001 79.0038C705.84 95.2669 669.179 114.286 669.179 105.741C669.179 100.504 654.846 33.7978 652.089 27.1823C649.884 20.8425 650.435 18.3616 657.326 9.81662C666.147 -1.76052 672.763 -2.03617 694.814 8.43839ZM779.989 37.9325C784.399 35.1761 786.053 35.4517 789.361 39.862C794.323 47.0288 794.323 52.5418 788.81 52.5418C786.604 52.5418 785.502 53.6443 786.329 55.2982C789.912 60.8111 784.399 57.779 775.303 48.9584C770.066 43.7211 766.482 38.7595 767.585 37.6569C768.687 36.8299 770.617 37.1056 771.995 38.4838C773.649 40.1377 776.681 39.862 779.989 37.9325ZM525.843 50.8879C525.843 53.92 520.606 55.0226 518.952 52.5418C518.125 51.1635 519.228 49.7853 521.433 49.7853C523.914 49.7853 525.843 50.3366 525.843 50.8879ZM651.814 55.8495C650.987 58.0547 650.16 57.2277 650.16 54.1956C649.884 51.1635 650.711 49.5097 651.538 50.6122C652.365 51.4392 652.64 53.92 651.814 55.8495ZM795.701 66.3241C798.733 72.9396 798.733 72.9396 794.874 67.9779C792.393 64.9458 790.463 61.3624 790.463 59.7086C790.463 56.4008 791.842 57.779 795.701 66.3241ZM801.489 94.1643C801.489 105.19 806.175 110.703 819.958 116.492L828.778 120.351L821.887 135.236C811.413 157.563 811.964 157.563 794.047 148.467C777.784 140.473 735.334 129.998 719.622 129.723C711.629 129.723 710.526 130.55 710.526 136.614C710.526 143.505 710.25 143.505 694.814 141.851C685.994 140.749 678.551 139.922 678.551 139.646C678.276 139.37 677.173 134.133 676.07 127.793L674.416 116.492L686.269 120.626C701.705 125.864 717.142 123.658 737.815 113.184C760.142 102.158 772.546 90.5809 778.611 75.696L783.572 63.292L792.393 73.7665C799.009 81.209 801.489 86.9975 801.489 94.1643ZM660.91 83.4141C662.564 90.0296 665.871 101.607 668.077 109.601C674.141 131.101 673.314 137.992 665.045 137.992C661.185 137.992 658.153 139.095 658.153 140.473C658.153 141.851 655.673 142.402 652.64 141.575C647.128 140.197 647.128 140.197 652.365 152.05C655.121 158.666 658.429 167.762 659.256 172.448C660.634 179.89 659.807 181.544 649.333 187.608C615.153 208.282 586.485 273.61 586.485 330.669C586.761 383.868 610.467 432.933 646.025 453.882C658.153 461.049 663.391 466.287 652.365 460.498C649.333 458.568 646.025 458.017 645.198 458.844C641.89 462.152 676.622 475.107 697.846 478.691L720.174 482.274L698.122 481.723C680.205 480.896 672.763 479.242 659.532 472.626C649.333 467.665 642.993 462.703 642.993 459.947C642.993 457.19 638.307 451.677 632.794 447.543C612.396 432.106 592.274 399.58 586.761 372.843C583.178 355.201 582.902 306.136 586.485 290.976C587.864 284.911 588.415 279.674 587.864 279.123C584.832 276.091 580.146 304.482 576.838 345.554C573.254 390.484 568.293 412.536 559.748 421.908C556.716 425.215 556.164 423.561 556.164 410.882C556.164 389.657 553.959 394.894 553.132 418.6C552.305 437.068 551.203 439.825 543.209 449.472C530.805 463.806 509.305 474.28 491.663 474.28C474.297 474.28 453.9 463.254 439.29 446.44C426.611 431.279 429.367 426.869 442.323 441.478C456.38 456.915 477.605 468.767 491.663 468.767C505.721 468.767 532.459 455.812 543.76 443.408L552.03 434.587L541.004 443.132C521.157 458.293 509.029 463.254 492.49 463.254C477.605 463.254 477.33 462.979 477.605 455.536C478.157 450.575 477.881 450.023 477.054 454.158C475.676 461.876 475.124 461.876 463.547 454.709C458.31 451.677 455.002 447.543 455.829 446.164C456.932 444.511 456.38 443.959 455.002 444.786C452.521 446.44 434.88 429.901 434.88 426.318C434.88 421.081 448.662 396.824 455.002 391.035C463.272 383.041 466.855 381.112 463.823 386.074C462.996 387.452 463.547 388.83 464.926 388.83C466.579 388.83 467.958 387.727 467.958 386.349C467.958 384.695 476.503 384.42 488.08 385.247C504.894 386.625 510.407 385.798 522.536 380.561C550.927 368.432 560.299 346.932 553.408 309.444C550.651 293.732 550.927 291.527 555.889 284.36C558.921 280.225 563.331 275.264 565.536 273.334C569.947 269.475 569.671 268.373 575.184 293.732C576.562 299.796 577.665 302.001 577.94 298.694C578.216 295.386 576.838 286.29 575.184 278.572L572.152 264.514L589.793 237.776C615.704 198.634 644.922 148.742 645.474 142.402C646.025 139.095 648.23 132.479 650.987 127.517C653.467 122.832 654.846 118.697 654.019 118.697C653.467 118.697 648.781 126.415 644.095 135.787C629.762 164.454 585.658 236.949 583.453 235.571C582.351 235.019 580.421 235.846 579.319 237.5C578.216 239.705 578.492 239.981 580.421 238.879C595.582 229.507 562.229 272.507 515.093 323.226C501.311 337.835 478.432 355.752 473.195 355.752C469.611 355.752 456.932 335.906 458.861 332.874C459.688 331.496 465.477 331.22 471.817 332.047C482.016 333.701 484.772 332.874 494.42 325.431C509.856 313.027 549.273 266.994 563.055 245.218C564.709 242.738 572.152 231.436 579.87 220.41C600.819 190.089 620.114 155.909 631.416 129.998L641.339 106.844L622.871 126.966C612.672 138.268 592.55 160.871 577.94 177.685C563.607 194.499 541.279 217.378 528.324 228.404C489.458 262.584 464.926 281.879 463.547 280.501C461.342 278.296 468.785 267.546 473.746 266.167C476.227 265.341 480.637 261.757 483.394 258.449L488.631 252.385L482.016 257.898L475.4 263.411L477.33 257.622C478.432 254.315 482.842 244.667 487.804 235.846C493.593 224.821 496.9 221.237 498.554 223.718C499.657 225.648 501.586 226.474 502.689 225.372C503.792 224.269 503.24 221.788 501.586 220.135C494.971 213.519 498.554 212.692 507.926 218.205C517.023 223.718 518.952 231.16 510.131 227.853C507.926 227.026 507.099 227.577 507.926 228.955C508.753 230.609 510.683 231.712 512.337 231.712C517.574 231.712 560.575 187.608 588.139 153.98C603.851 134.96 622.871 114.011 630.589 107.395C643.544 96.3695 644.647 94.7156 642.993 86.7219C641.89 79.8307 642.717 77.0743 646.301 74.8691C654.846 69.9075 657.878 71.5613 660.91 83.4141ZM525.016 91.6835C524.465 95.2669 523.914 93.0617 523.914 86.9975C523.638 80.9333 524.189 78.1768 525.016 80.6577C525.568 83.4141 525.568 88.3758 525.016 91.6835ZM810.861 95.2669C810.034 97.1964 810.586 101.607 812.515 104.639C814.445 108.222 814.445 110.427 812.791 110.427C808.932 110.427 804.246 101.055 804.246 94.1643C804.246 90.3053 805.624 88.927 808.105 90.0296C810.31 90.8566 811.413 93.3374 810.861 95.2669ZM830.983 104.088C842.836 110.979 843.388 111.53 837.875 114.011C831.259 117.043 820.233 111.254 815.272 102.158C811.137 94.44 815.547 94.9913 830.983 104.088ZM870.401 103.812C870.401 111.254 857.446 121.453 847.798 121.453H838.702L847.522 115.94C852.484 113.184 858.272 107.671 861.029 103.812C865.715 96.3695 870.401 96.6451 870.401 103.812ZM530.805 129.723C530.805 134.133 529.978 132.479 528.324 125.588C527.222 119.524 526.119 110.703 526.395 106.293C526.395 100.229 527.222 101.055 528.875 110.427C529.978 117.319 530.805 125.864 530.805 129.723ZM617.082 153.428C604.127 179.063 569.12 235.295 565.261 236.398C563.882 236.949 560.85 231.16 558.37 223.718C553.959 210.211 553.959 209.936 560.85 203.596C564.709 200.012 580.972 182.095 596.96 163.351C612.947 144.883 626.454 129.998 627.005 130.825C627.557 131.377 623.146 141.575 617.082 153.428ZM764.277 141.024C790.463 147.64 807.002 157.287 807.002 166.384C807.002 169.691 807.829 175.48 808.38 179.339C809.207 183.198 808.932 184.301 808.105 182.095C801.765 167.211 779.162 157.287 736.161 150.672C715.488 147.64 714.661 147.088 713.834 139.646L712.731 131.928L727.616 133.857C735.61 134.684 752.149 137.992 764.277 141.024ZM533.286 150.947C532.459 153.704 531.907 151.499 531.907 146.261C531.907 141.024 532.459 138.819 533.286 141.3C533.837 144.056 533.837 148.467 533.286 150.947ZM711.904 149.018C714.936 150.12 729.821 153.153 744.982 155.633C772.546 160.319 801.489 170.794 801.489 176.307C801.489 180.442 800.387 180.166 785.226 172.723C762.072 160.871 725.687 157.563 697.846 164.454C693.16 165.832 691.231 164.178 688.75 157.012C687.096 152.326 685.718 147.088 685.718 145.71C685.718 142.954 702.808 145.159 711.904 149.018ZM682.686 156.46C682.686 166.108 682.41 166.384 679.654 160.595C676.07 153.153 670.833 152.326 673.314 159.768C674.141 162.8 678.551 183.474 682.686 206.077C687.096 228.68 694.814 257.622 700.052 270.578L709.148 294.283L718.796 277.469C724.033 268.373 737.539 251.834 748.29 240.808C759.315 230.058 767.034 220.135 765.655 219.308C764.001 218.481 762.899 219.032 762.899 220.41C762.899 222.064 758.213 227.577 752.7 232.814L742.225 242.462L740.296 233.641L738.642 224.821L738.918 234.744C739.193 241.911 736.713 247.975 730.373 256.52C724.584 264.514 721.276 267.27 720.174 264.514C705.289 223.167 699.5 205.801 699.5 202.493C699.5 200.288 702.257 197.532 705.84 196.153C710.802 194.224 712.18 195.051 713.834 199.737C715.488 205.525 715.488 205.525 715.763 199.461C716.039 195.326 718.244 192.57 722.655 191.467C730.097 189.814 762.899 195.051 767.585 198.91C769.514 200.564 771.168 200.564 772.271 199.185C777.232 191.192 716.039 185.679 702.532 192.846C697.295 195.878 696.193 195.878 697.295 192.57C700.052 184.852 711.629 181.82 736.713 182.647C757.937 183.474 764.277 185.128 780.816 192.846C791.566 197.807 800.662 201.391 801.489 200.839C802.041 200.288 802.316 198.083 802.041 195.326C801.489 192.846 802.592 190.089 804.246 188.987C805.624 188.16 807.002 189.538 807.002 192.019C807.002 194.775 808.38 200.839 810.31 205.801L813.618 214.897L838.702 213.243C884.183 210.211 916.434 222.891 950.614 256.52C984.243 289.597 999.679 327.085 999.955 375.048C999.955 427.42 975.422 473.178 931.594 501.845C881.427 534.922 822.99 538.781 772.822 512.044C753.251 501.569 719.071 469.319 711.353 453.607C696.193 423.286 692.885 408.401 693.16 370.913C693.16 341.97 694.263 332.047 698.949 319.092C702.257 310.271 703.635 303.931 701.981 304.758C697.846 307.514 680.756 268.373 675.519 244.943C673.038 233.366 670.006 224.269 668.904 225.096C667.801 225.648 667.525 221.788 668.352 216L670.006 205.801L659.256 214.346C634.999 233.366 619.563 254.315 609.915 281.052C607.159 288.219 606.056 289.322 606.056 285.187C605.781 276.366 623.698 242.462 636.102 228.128C642.166 221.237 651.538 212.968 656.775 209.66C663.391 205.525 666.423 201.666 666.423 196.98C666.423 193.121 665.045 190.916 663.115 191.467C661.185 191.743 660.359 191.743 661.737 191.192C664.769 189.262 663.942 179.615 659.807 163.627C657.602 155.909 656.775 148.742 657.602 147.915C658.429 147.088 664.493 146.261 671.109 146.261H682.962L682.686 156.46ZM408.694 182.095C409.521 183.474 408.969 184.852 407.591 184.852C405.937 184.852 404.559 183.474 404.559 182.095C404.559 180.442 405.11 179.339 405.662 179.339C406.489 179.339 407.867 180.442 408.694 182.095ZM537.696 191.467C542.382 205.25 539.35 211.59 529.978 207.731C526.119 206.352 525.568 206.904 527.222 209.936C529.427 213.243 528.875 213.243 525.016 210.211C520.882 206.628 520.882 205.525 524.741 196.429C527.222 190.64 529.702 184.576 530.529 182.647C532.734 177.685 533.286 178.236 537.696 191.467ZM404.008 194.224C398.219 197.532 391.052 202.769 388.02 205.525C384.988 208.282 382.507 209.384 382.507 208.006C382.507 206.628 381.129 207.455 379.751 209.66C378.097 212.141 376.994 212.416 376.994 210.487C376.994 208.833 378.924 205.525 381.129 203.32C383.334 201.115 384.437 198.634 383.61 197.807C381.956 196.153 403.732 188.16 410.072 187.884C412.277 187.884 409.521 190.64 404.008 194.224ZM822.714 193.673C821.887 195.878 821.06 195.051 821.06 192.019C820.785 188.987 821.611 187.333 822.438 188.435C823.265 189.262 823.541 191.743 822.714 193.673ZM505.445 194.775C510.407 198.634 510.407 198.634 503.792 195.602C495.247 191.743 493.868 190.365 497.176 190.365C498.83 190.365 502.413 192.294 505.445 194.775ZM699.225 215.173C699.225 217.378 697.295 214.07 694.814 207.455C689.301 191.467 687.648 194.224 692.609 211.314C705.84 255.693 705.564 255.142 701.154 228.955C700.327 223.718 703.911 231.712 709.424 246.597C714.661 261.481 717.969 274.713 716.59 275.539C715.488 276.366 713.283 279.674 712.18 282.706C706.943 296.213 682.962 212.416 687.096 196.429C689.301 188.987 689.301 188.987 694.263 200.012C697.019 206.077 699.225 212.968 699.225 215.173ZM480.913 202.769C486.426 205.25 492.766 206.352 494.971 205.525C496.9 204.698 498.279 204.974 497.727 206.077C481.464 242.186 450.041 290.7 445.355 287.944C443.976 286.841 443.425 284.636 444.252 282.431C445.079 280.225 444.528 278.572 443.149 278.572C442.047 278.572 439.29 274.161 437.637 268.648C435.707 263.135 428.816 250.731 422.2 241.084C411.175 224.821 410.623 223.442 415.309 220.962C418.066 219.308 421.098 219.032 422.2 219.859C423.027 220.686 423.854 220.41 423.854 218.756C423.854 213.795 437.637 209.66 455.002 209.66C474.573 209.66 485.048 211.865 482.842 215.449C482.016 216.827 483.394 217.102 485.599 216.276C491.939 213.795 488.355 210.211 476.778 206.904C463.823 203.32 445.079 203.32 426.611 206.904C408.142 210.487 405.937 208.833 421.649 203.32C437.361 197.807 468.233 197.532 480.913 202.769ZM404.559 212.416C402.354 213.795 399.322 215.173 397.668 215.173C396.29 215.173 396.841 213.795 399.046 212.416C401.251 211.038 404.559 209.66 405.937 209.66C407.591 209.66 406.764 211.038 404.559 212.416ZM426.335 210.763C425.784 211.314 420.822 213.795 415.585 216.276L405.937 220.962L412.828 215.449C416.687 212.416 421.373 209.66 423.579 209.66C425.784 209.66 426.886 210.211 426.335 210.763ZM555.889 230.058C559.748 244.943 557.543 246.045 551.754 231.987C549.273 225.648 546.792 220.962 545.965 221.788C545.414 222.34 546.792 227.577 548.998 233.09C554.786 246.872 554.51 254.59 548.171 260.379C544.036 264.238 542.658 264.514 541.555 261.482C541.004 259.552 540.728 260.379 541.279 263.687C541.831 266.994 539.901 271.68 536.593 274.713C531.907 279.123 530.529 279.123 528.324 275.815C526.395 272.783 526.119 273.886 527.497 279.399C528.875 286.014 526.946 289.322 508.478 307.514L487.804 328.188H470.99C454.727 328.188 454.175 327.912 454.175 321.021C454.175 314.681 455.002 314.13 462.445 315.784C467.682 316.886 470.714 316.611 470.714 314.681C470.714 313.027 469.611 311.649 467.958 311.649C466.579 311.649 465.201 305.585 465.201 298.142C465.201 285.738 466.028 284.084 474.573 278.847C479.535 275.539 498.554 260.103 516.471 244.391C534.388 228.404 550.1 216.276 551.203 217.378C552.03 218.481 554.235 224.269 555.889 230.058ZM658.98 233.641C654.846 242.462 650.987 250.18 650.16 251.007C649.333 251.834 648.506 254.039 648.23 255.693C647.128 268.097 646.852 268.924 644.095 262.308C639.134 249.904 642.166 236.949 652.089 227.026C657.051 222.064 662.288 217.929 663.666 217.929C665.045 217.929 662.839 225.096 658.98 233.641ZM672.487 266.994C671.936 292.354 672.763 297.867 680.205 319.367C686.821 338.387 688.474 347.483 687.923 360.99C687.096 377.529 687.096 377.804 683.788 369.81C681.859 365.4 675.795 346.932 670.006 329.015C661.737 302.828 659.807 292.354 659.807 274.437V252.385L656.224 264.789C650.711 282.982 649.333 300.348 652.089 314.406C654.846 326.81 654.846 326.81 655.397 317.162C655.673 309.444 656.775 311.373 660.91 328.739C663.942 340.316 670.006 358.233 674.692 368.432C684.34 390.208 683.788 395.446 673.59 375.875C669.731 368.708 666.698 363.746 666.423 364.849C666.147 369.535 680.481 394.343 682.962 392.965C684.064 392.138 686.545 397.375 688.199 404.542C689.577 411.984 691.782 420.254 692.885 423.286C694.814 428.247 694.263 428.247 687.923 422.459C678.276 413.914 665.596 389.106 658.429 365.951C651.262 342.521 632.518 251.834 634.172 247.424C635.275 243.84 639.961 263.135 643.268 284.084L645.198 296.489L648.781 279.399C650.711 270.027 655.673 254.59 659.807 245.494C666.423 230.885 667.801 229.231 670.282 233.641C671.66 236.398 672.763 251.283 672.487 266.994ZM384.161 240.532L392.155 249.629L383.334 241.635C374.789 233.917 372.86 231.712 375.065 231.712C375.616 231.712 379.475 235.846 384.161 240.532ZM368.725 245.494C367.071 248.802 364.866 250.731 364.039 250.18C363.488 249.353 364.315 246.045 365.969 242.738C367.622 239.43 369.828 237.5 370.655 238.052C371.206 238.879 370.379 242.186 368.725 245.494ZM383.61 254.315C384.988 258.174 385.264 264.789 384.161 268.924L382.232 276.642L376.443 271.129C371.206 265.892 371.206 265.065 375.616 256.244C378.924 248.802 379.2 247.975 375.892 252.385C373.411 255.417 370.379 259.276 368.725 261.206C367.347 263.135 364.59 267.821 362.661 271.68C360.18 277.469 358.802 278.02 355.494 274.988C351.911 272.232 351.359 272.507 353.013 278.02C353.84 281.604 353.84 283.809 352.738 282.706C351.635 281.604 346.949 292.905 342.263 307.79C333.442 336.182 326.276 346.381 330.41 324.88C334.545 302.828 347.776 270.027 357.699 256.52C360.18 253.212 360.456 254.59 359.353 262.033L357.699 271.68L365.969 258.449C375.065 244.116 379.751 243.013 383.61 254.315ZM401.803 264.789C403.456 267.821 404.008 270.302 403.456 270.302C402.629 270.302 400.7 267.821 399.046 264.789C397.392 261.757 396.841 259.276 397.392 259.276C398.219 259.276 400.149 261.757 401.803 264.789ZM634.448 322.675C639.409 352.996 647.128 378.08 658.429 400.683C666.423 416.395 685.994 445.337 692.609 450.85C694.263 452.229 698.122 456.915 700.603 461.049C705.564 468.767 705.564 468.767 698.673 468.767C685.167 468.767 674.692 465.46 674.416 460.774C674.416 458.017 673.865 457.742 672.763 459.671C669.455 468.216 637.48 443.959 622.044 421.081C610.467 403.439 599.441 372.843 601.646 363.195C602.197 359.887 603.575 347.483 604.402 335.906C606.332 307.239 609.64 291.251 617.082 273.334L623.422 258.174L626.73 277.469C628.659 287.944 631.967 308.341 634.448 322.675ZM407.315 287.392C410.348 293.181 412.001 297.867 411.175 297.867C410.072 297.867 410.623 299.521 412.277 301.175C413.655 303.104 415.861 309.995 416.963 316.335C418.617 327.637 418.617 328.188 412.001 328.188C406.213 328.188 405.11 326.534 403.456 316.611C402.078 308.617 402.629 304.482 405.11 302.553C407.591 300.899 407.315 300.623 404.008 301.726C397.668 303.655 395.738 299.796 400.149 293.732C402.078 290.976 403.181 286.29 402.354 283.258C401.251 278.847 400.424 279.399 397.117 287.117C393.258 296.213 392.982 296.213 389.123 291.251C384.988 285.463 384.437 278.296 387.193 267.821L388.847 261.206L395.463 269.2C399.046 273.61 404.283 281.879 407.315 287.392ZM694.539 306.687C694.263 308.066 695.09 308.893 696.468 308.893C698.122 308.893 697.295 314.681 694.814 321.572L690.404 334.528L686.821 327.361C680.756 316.335 674.692 289.597 674.692 275.815L674.968 263.411L684.891 284.084C690.404 295.386 694.539 305.585 694.539 306.687ZM374.514 274.713C377.27 278.296 377.27 280.225 373.411 286.841C370.93 290.976 368.725 296.213 368.725 298.418C368.725 300.623 366.796 308.893 364.59 316.611C360.731 329.015 359.353 330.944 353.289 330.944C347.225 330.944 346.673 330.117 348.327 323.226C351.911 308.341 366.52 270.302 368.725 270.302C369.828 270.302 372.308 272.232 374.514 274.713ZM459.137 309.168C453.348 313.027 451.97 312.2 450.041 303.104C448.387 296.489 449.489 293.181 454.727 287.668L461.066 280.777L461.893 294.008C462.445 302.553 461.618 307.79 459.137 309.168ZM382.507 290.424C382.507 292.354 380.027 296.764 376.994 300.623L371.757 307.514L372.584 300.623C373.687 290.976 377.27 283.809 380.027 285.738C381.405 286.565 382.507 288.77 382.507 290.424ZM654.57 295.662C653.743 297.591 653.192 296.213 653.192 292.354C653.192 288.495 653.743 287.117 654.57 288.77C655.121 290.7 655.121 294.008 654.57 295.662ZM544.036 324.053C540.177 333.425 539.074 333.976 534.664 330.669C530.254 327.085 530.254 327.361 534.388 332.323C539.901 338.938 538.523 343.348 528.875 353.823C519.779 363.746 505.721 370.913 490.836 373.394C467.406 376.977 466.028 369.535 487.253 355.752C500.759 346.932 532.459 315.233 541.555 301.45L546.517 294.008L547.344 303.931C547.895 309.444 546.241 318.54 544.036 324.053ZM387.193 314.406C387.469 330.944 387.469 330.944 379.475 330.944C370.103 330.944 369.276 326.81 375.892 313.579C379.751 305.861 385.264 297.867 386.366 297.867C386.642 297.867 386.918 305.309 387.193 314.406ZM400.149 320.47C401.527 326.81 400.976 328.188 396.565 328.188C390.777 328.188 389.95 322.951 392.706 308.893C394.084 302.553 394.36 302.277 396.29 307.514C397.392 310.547 399.046 316.335 400.149 320.47ZM602.197 316.335C601.37 319.092 600.819 316.886 600.819 311.649C600.819 306.412 601.37 304.207 602.197 306.687C602.749 309.444 602.749 313.854 602.197 316.335ZM401.803 341.97C401.803 351.893 399.873 352.169 383.059 344.175L370.103 338.111L379.751 336.182C399.873 332.598 401.803 332.874 401.803 341.97ZM421.098 343.348C421.098 350.791 419.995 352.996 416.136 352.996C409.245 352.996 404.559 347.759 404.559 340.041C404.559 334.803 405.937 333.701 412.828 333.701C420.546 333.701 421.098 334.528 421.098 343.348ZM437.637 343.348C437.637 349.964 436.258 352.996 433.502 352.996C431.297 352.996 429.367 351.342 429.367 349.413C429.367 347.759 428.54 343.348 427.713 339.765C426.335 334.803 427.162 333.701 431.848 333.701C436.534 333.701 437.637 335.355 437.637 343.348ZM599.441 342.521C598.614 344.727 597.787 343.9 597.787 340.868C597.511 337.835 598.338 336.182 599.165 337.284C599.992 338.111 600.268 340.592 599.441 342.521ZM354.391 366.778C355.77 377.529 365.969 408.125 373.411 422.459C376.994 429.901 378.648 435.69 377.27 435.69C370.379 435.69 349.43 390.76 345.571 367.33C344.193 359.612 344.744 358.233 348.879 359.06C351.359 359.612 353.84 362.919 354.391 366.778ZM426.886 397.651C416.963 426.869 406.764 442.03 387.745 454.709C359.353 473.729 338.68 475.383 321.314 460.222C318.006 457.19 316.628 455.261 318.557 456.363C320.487 457.466 319.384 452.229 315.525 443.408C311.942 435.414 308.083 424.94 306.98 420.529C305.326 413.363 305.878 413.914 313.045 424.664C322.141 439.273 336.75 452.229 343.366 451.953C346.949 451.953 346.949 451.402 342.539 449.472C331.237 445.062 329.308 439.825 334.821 429.074L340.058 419.151L349.981 434.312C357.975 446.44 359.077 449.472 355.494 449.748C352.462 449.748 352.186 450.575 354.116 451.402C359.629 453.331 382.232 440.927 393.533 429.626C399.322 423.837 409.245 408.952 415.585 396.824C423.303 381.663 427.989 375.323 429.918 377.253C431.848 379.182 430.745 385.798 426.886 397.651ZM597.511 419.702C597.511 423.286 595.306 424.664 589.242 424.664C579.594 424.664 579.043 422.734 585.658 411.157C590.62 402.888 590.62 402.888 593.928 408.952C595.857 412.26 597.236 417.222 597.511 419.702ZM313.596 448.094C313.596 449.472 312.218 448.921 310.839 446.716C309.461 444.511 308.083 441.203 308.083 439.825C308.083 438.171 309.461 438.998 310.839 441.203C312.218 443.408 313.596 446.44 313.596 448.094ZM695.366 443.959C698.122 446.991 699.776 449.472 698.949 449.472C698.122 449.472 695.366 446.991 692.609 443.959C689.853 440.927 688.199 438.446 689.026 438.446C689.853 438.446 692.609 440.927 695.366 443.959ZM696.744 471.799L711.904 474.005L694.814 473.178C685.718 472.626 675.795 470.697 672.763 469.043C668.352 466.287 668.628 466.011 674.692 467.665C678.551 468.767 688.474 470.697 696.744 471.799Z" fill="black"/>
<path d="M479.535 421.907C479.535 425.766 480.086 427.145 480.913 425.215C481.464 423.561 481.464 420.253 480.913 418.324C480.086 416.67 479.535 418.048 479.535 421.907Z" fill="black"/>
<path d="M473.471 231.712C470.438 237.776 468.509 242.737 469.336 242.737C469.887 242.737 473.195 237.776 476.227 231.712C479.259 225.647 481.189 220.686 480.362 220.686C479.81 220.686 476.503 225.647 473.471 231.712Z" fill="black"/>
<path d="M455.829 261.206C450.041 270.026 447.835 274.712 450.868 271.68C456.656 265.616 469.06 245.494 467.131 245.494C466.579 245.494 461.342 252.661 455.829 261.206Z" fill="black"/>
<path d="M534.94 246.045C535.215 250.456 536.318 253.763 537.42 253.763C540.177 253.763 539.901 251.282 536.869 244.116C534.664 239.43 534.664 239.705 534.94 246.045Z" fill="black"/>
<path d="M530.253 266.167C527.221 268.372 526.119 270.302 527.773 270.302C529.427 270.302 532.183 268.372 534.112 266.167C538.523 260.93 537.145 260.93 530.253 266.167Z" fill="black"/>
<path d="M509.029 283.257L502.413 290.975L510.131 284.36C517.023 278.02 518.952 275.815 516.747 275.815C516.196 275.815 512.888 279.123 509.029 283.257Z" fill="black"/>
<path d="M486.702 307.515C480.913 312.752 478.157 317.162 480.086 317.162C482.291 317.162 486.426 317.989 489.183 318.816C493.869 320.194 493.869 320.194 489.183 317.162C484.221 314.13 484.497 313.303 491.663 305.861C502.138 294.835 499.106 295.937 486.702 307.515Z" fill="black"/>
<path d="M524.741 348.31C525.568 351.066 527.221 352.445 528.048 351.618C528.875 350.791 528.048 348.586 526.119 346.656C523.362 344.175 523.087 344.451 524.741 348.31Z" fill="black"/>
<path d="M197.825 55.0225C175.773 56.6764 174.395 56.952 173.568 63.2919L172.465 69.9074L196.171 68.2535C209.677 67.4266 219.876 67.7022 219.876 69.0805C219.876 70.4587 224.562 72.3882 230.351 73.4908C240.825 75.4203 257.364 84.5166 263.428 91.6834C265.358 94.1643 266.736 103.536 266.736 114.838C266.736 134.409 271.146 176.031 271.973 161.973C272.249 156.185 273.352 154.255 277.211 155.082C279.967 155.633 281.621 158.114 281.07 160.871C280.518 163.627 281.897 165.281 283.826 165.005C285.756 164.454 289.063 169.691 291.544 176.582C293.749 183.474 296.781 190.64 297.884 192.57C299.262 194.499 298.987 196.153 297.333 196.153C295.679 196.429 292.922 196.705 290.993 196.98C289.339 196.98 287.409 198.634 286.858 200.564C286.031 202.769 288.512 203.871 294.025 203.32C298.711 203.044 302.57 201.942 302.57 200.564C302.57 199.461 305.878 198.358 310.288 198.358L317.731 198.083L309.461 196.153C301.192 193.948 301.192 193.948 313.596 190.64C320.487 188.711 327.378 186.781 328.756 186.23C330.962 185.127 313.596 186.781 301.467 188.711C300.089 188.711 294.301 174.377 288.236 156.185L277.211 123.658L289.89 110.979C299.814 100.78 303.121 98.8502 305.878 101.607C307.807 103.536 310.564 104.914 312.218 104.914C313.596 104.914 313.045 103.536 310.839 102.158C302.294 96.6451 314.698 99.4015 329.583 106.293C341.712 112.081 344.468 112.357 345.846 109.049C348.052 102.985 342.539 98.0233 327.929 92.786C320.763 90.3052 310.839 86.1705 305.878 83.6897C297.333 79.555 296.506 79.555 292.095 83.9654C287.685 88.3757 287.685 88.6513 292.371 86.7218C295.679 85.6192 297.057 86.4462 297.057 89.4783C297.057 94.4399 290.166 95.5425 287.409 91.1321C286.307 89.4783 284.653 88.927 283.275 89.7539C282.172 90.5809 277.211 86.4462 272.525 80.382C267.563 74.3177 259.018 67.7022 252.402 64.9458C245.787 62.465 238.344 58.3303 235.588 55.8495C231.178 51.7148 230.902 51.7148 232.556 56.1251C233.934 59.7085 233.107 60.5354 229.799 59.1572C227.319 58.3303 225.389 56.4008 225.389 55.0225C225.389 53.6443 224.562 52.8174 223.46 53.093C222.081 53.3686 210.78 54.1956 197.825 55.0225ZM255.159 69.3561C262.877 72.1126 268.666 79.0037 265.633 82.3115C263.428 84.241 243.582 73.4908 242.479 69.6318C241.101 65.4971 244.133 65.4971 255.159 69.3561ZM269.493 90.0296C269.493 90.5809 267.012 90.0296 263.98 88.3757C260.947 86.7218 258.467 84.7923 258.467 83.9654C258.467 83.4141 260.947 83.9654 263.98 85.6192C267.012 87.2731 269.493 89.2026 269.493 90.0296ZM289.89 95.5425C293.474 96.9207 293.198 98.0233 287.685 102.434C279.14 109.325 277.762 109.049 277.762 100.78C277.762 93.8886 281.345 92.2347 289.89 95.5425ZM277.762 150.947C277.762 151.499 276.659 151.774 275.281 151.774C272.525 151.774 266.736 125.037 269.217 122.831C270.319 121.453 275.557 139.646 277.762 150.947Z" fill="black"/>
<path d="M485.875 55.2982C486.702 56.6765 488.08 58.0547 488.907 58.0547C489.458 58.0547 490.009 56.6765 490.009 55.2982C490.009 53.6444 488.631 52.5418 486.977 52.5418C485.599 52.5418 485.048 53.6444 485.875 55.2982Z" fill="black"/>
<path d="M207.748 80.6577C205.267 83.9654 203.337 90.3053 203.337 94.44C203.337 101.331 203.889 101.882 210.504 99.4016C214.363 97.7477 221.53 96.6451 226.216 96.3695C231.178 96.3695 237.518 95.2669 240.55 93.8887C243.857 92.2348 238.344 91.9592 226.216 93.0617C209.953 94.44 206.094 93.8887 206.094 90.8566C206.094 84.2411 210.229 80.1064 218.774 77.3499L226.767 75.1447L219.325 74.8691C214.639 74.5935 210.229 76.7986 207.748 80.6577Z" fill="black"/>
<path d="M249.646 90.3051C251.576 91.1321 254.056 90.8564 254.883 90.0295C255.986 89.2026 254.332 88.3756 251.3 88.6513C248.268 88.6513 247.441 89.4782 249.646 90.3051Z" fill="black"/>
<path d="M150.965 155.082C142.695 158.114 128.913 160.871 120.644 161.422C107.964 162.249 107.137 162.249 115.131 160.319L124.778 158.114L114.855 157.563C108.515 157.287 103.278 158.941 100.521 162.249C91.9764 171.896 96.6624 182.095 109.618 182.095C119.265 182.095 128.913 185.127 128.913 187.884C128.913 188.986 123.676 190.365 117.336 190.916C103.002 192.019 100.797 197.256 113.201 201.115C120.368 203.596 124.503 203.596 130.016 201.115C133.875 199.185 137.182 196.705 137.182 195.602C137.182 194.499 139.663 194.224 142.42 195.051C148.208 196.429 153.17 212.968 148.208 214.622C146.83 215.173 145.452 218.205 145.452 221.513C145.452 224.545 143.247 229.782 140.766 232.814C138.009 236.122 137.734 236.949 139.939 235.019C142.144 233.365 144.9 231.712 146.003 231.712C147.381 231.712 141.041 238.878 131.945 247.699C119.541 259.827 112.65 270.302 101.624 292.354C93.9059 308.341 88.1173 318.54 88.6686 314.957C89.2199 311.649 88.393 308.892 87.0148 308.892C85.3609 308.892 84.8096 312.2 85.9122 317.162C86.7391 321.848 86.1878 325.431 84.8096 325.431C83.1557 325.431 82.0531 327.361 82.0531 329.566C82.0531 334.528 70.7516 335.079 66.3413 330.669C64.1361 328.463 62.7579 328.739 61.3797 331.22C60.0014 333.149 60.2771 333.976 62.2066 332.598C63.8605 331.771 65.79 332.047 66.8926 333.701C67.7195 335.355 66.617 337.284 64.4118 338.111C61.931 338.938 60.0014 341.143 60.0014 342.797C60.0014 344.175 62.2066 343.624 64.9631 341.143C67.7195 338.387 71.5786 336.457 73.2325 336.457C77.9184 336.457 77.3671 343.9 72.4055 345.829C70.2003 346.656 68.2708 349.412 68.2708 352.169C68.2708 356.304 67.7195 356.579 65.5144 352.996C63.0336 349.412 62.7579 349.412 62.7579 353.272C62.7579 363.195 70.2003 368.156 83.9827 367.605C91.1495 367.054 106.861 368.983 118.714 371.464C136.907 375.323 139.939 376.701 140.214 381.663C140.49 386.349 140.766 386.625 141.868 382.49C144.074 374.496 150.965 376.977 150.965 385.798C150.965 393.516 150.689 393.791 142.144 391.311C137.182 390.208 122.297 386.349 109.066 383.041C95.8354 379.734 85.3609 376.15 85.9122 375.323C86.4635 374.496 83.1557 373.394 78.7454 373.118C67.7195 372.291 60.0014 365.124 60.0014 355.201C60.0014 351.066 58.6232 347.483 56.9693 347.483C55.5911 347.483 54.7642 348.586 55.8668 349.964C56.6937 351.618 51.4564 353.272 44.2896 353.823L31.0586 354.65L44.2896 355.201C52.0077 355.477 57.245 357.131 57.245 359.06C57.245 360.714 60.0014 365.124 63.3092 368.708C69.0978 375.048 69.0978 375.048 63.8605 381.112C60.8284 384.971 60.2771 386.073 63.0336 383.868C65.5144 382.214 68.5465 381.663 69.6491 382.766C71.0273 383.868 71.0273 383.041 69.6491 380.836C67.9952 377.804 69.3734 377.528 76.8159 378.631C96.938 381.663 146.554 396.272 147.381 399.029C148.759 403.163 136.631 427.145 127.535 437.895C112.925 455.261 84.8096 462.427 64.4118 453.882C50.0782 447.818 32.9881 428.799 23.3405 408.676C14.7955 390.759 14.5198 389.105 14.5198 352.996C14.5198 316.335 14.7955 315.232 23.6162 297.315C38.5011 266.994 65.79 247.699 86.7391 252.661C90.8738 253.763 98.0406 256.244 102.451 258.449C107.964 261.206 110.996 261.757 113.201 259.552C117.887 254.866 91.4251 244.391 75.162 244.391C59.7258 244.391 47.0461 249.904 32.1612 263.135C26.9239 267.821 29.4047 265.065 37.6741 256.795C45.9435 248.526 50.3538 243.289 47.3217 244.943C39.6036 249.077 17.2763 273.334 12.039 283.533C9.55821 288.219 8.45563 294.283 9.55821 296.764C10.6608 299.796 10.3852 300.899 8.17998 299.521C4.32094 297.315 1.28883 306.687 3.76965 313.027C4.87223 315.784 4.59658 317.438 3.21835 316.611C1.84012 315.508 0.461892 325.156 0.186246 338.387C-0.365046 358.233 0.186246 361.541 3.494 360.163C6.80175 359.06 7.62869 360.99 7.62869 369.259C7.62869 394.343 24.1675 430.452 44.2896 449.196C49.8025 454.434 53.6616 459.947 52.8347 461.049C51.7321 462.427 53.3859 463.254 56.1424 462.703C59.1745 462.152 61.104 463.254 60.8284 465.184C60.2771 467.113 67.4439 468.767 81.5018 470.145C93.079 470.972 106.034 472.351 110.169 472.902C114.304 473.453 118.438 472.902 119.265 471.524C120.092 469.87 118.163 468.767 114.579 468.767C109.066 468.492 109.618 467.94 118.163 463.254C132.221 455.812 150.413 434.863 158.407 416.946C162.266 408.401 165.574 400.958 165.574 400.958C165.85 400.683 173.568 402.061 182.664 403.99C201.959 407.849 209.953 405.369 214.915 394.067C216.844 389.932 221.254 385.522 224.562 384.695C230.075 383.317 230.902 381.387 230.902 369.81C230.902 358.509 231.729 356.304 237.518 353.547C241.377 351.893 249.37 345.829 255.435 340.316C267.287 329.842 270.595 321.297 273.352 295.11C275.281 276.642 271.146 284.36 268.39 304.758C267.287 312.2 263.704 322.399 260.947 327.361C252.678 340.592 225.389 359.06 225.389 351.342C225.389 350.515 232.005 343.624 239.998 335.906L254.332 322.124L239.447 334.528C224.562 347.207 220.427 348.034 211.056 340.04C206.921 336.457 206.921 334.803 210.78 321.848C217.671 298.142 238.896 263.962 270.319 226.75C276.108 220.134 280.518 212.692 280.518 210.487C280.518 205.525 247.716 246.321 227.87 275.539C219.325 288.219 211.882 303.38 208.299 316.059C203.337 332.322 201.132 336.457 196.998 336.457C192.312 336.457 191.76 335.079 193.414 327.361C194.517 321.021 194.241 319.643 192.312 322.675C190.106 326.258 189.555 325.983 189.279 321.297C189.004 318.264 188.728 314.13 188.728 312.476C189.004 310.546 187.901 309.444 186.799 310.271C185.42 311.098 184.042 309.444 183.491 306.963C182.94 303.655 186.799 300.072 196.171 295.11C203.613 291.251 211.882 285.187 214.088 281.328C217.671 275.539 217.12 275.815 210.229 282.706C200.857 292.629 184.869 299.796 181.286 296.213C179.356 294.008 159.51 235.295 157.856 226.199C157.58 223.994 156.202 215.173 155.375 206.628L153.445 191.192L166.676 177.409C173.843 169.967 182.113 162.8 184.869 161.973C187.901 160.871 189.555 158.114 189.004 155.358C187.626 148.191 169.433 148.191 150.965 155.082ZM171.914 168.037C168.33 173.826 144.625 187.057 140.766 185.679C138.561 184.852 135.528 185.679 134.15 187.884C132.221 190.916 131.669 190.916 131.669 186.781C131.669 183.749 133.875 182.095 138.009 182.095C141.593 182.095 150.138 178.512 156.753 173.826C168.882 165.557 174.67 163.351 171.914 168.037ZM131.669 195.878C126.157 199.461 110.445 199.461 108.24 195.878C107.137 194.224 112.099 193.121 121.195 193.121C131.669 193.121 134.702 193.948 131.669 195.878ZM160.612 246.045C170.811 282.43 187.626 329.842 193.414 339.214C201.408 351.618 206.37 366.227 203.337 368.156C202.235 368.983 202.51 373.118 204.164 377.528C208.85 390.208 203.337 399.856 191.485 399.856C179.907 399.856 164.196 394.618 166.125 391.586C166.952 390.208 171.087 391.035 175.222 393.24C185.145 398.477 190.382 398.202 197.824 392.138C203.889 387.176 203.889 386.9 199.478 378.355C193.69 367.329 192.036 367.054 193.965 377.528C195.619 385.246 195.344 385.798 186.523 385.522C177.978 385.246 173.292 382.214 173.016 377.253C173.016 376.15 174.67 375.874 176.875 376.701C184.593 379.734 184.869 371.464 177.427 365.4C170.536 359.887 169.984 358.509 173.016 353.272C176.324 346.932 184.042 346.38 186.247 352.445C186.799 354.374 185.696 355.201 183.215 354.098C176.048 351.342 175.497 357.682 182.664 362.368C186.523 364.849 189.555 365.676 189.555 364.022C189.555 362.643 191.485 361.265 193.965 361.265C197.549 361.265 197.273 359.887 192.312 352.996L186.523 344.726L157.029 345.278C140.766 345.553 133.323 346.105 140.766 346.656C166.401 348.861 153.17 351.618 121.471 350.791C84.8096 349.964 82.0531 349.412 82.0531 343.348C82.0531 340.04 83.1557 339.489 87.5661 341.97C91.1495 343.9 96.6624 343.9 104.656 341.97C111.272 340.592 127.81 339.214 141.868 339.214C155.651 339.214 168.055 338.111 168.882 336.457C173.292 329.29 155.375 282.155 141.041 263.135C132.772 252.385 132.772 250.731 141.593 242.737C146.554 237.776 149.035 236.949 150.689 239.43C151.792 241.084 158.683 262.584 166.125 287.116C173.568 311.373 180.183 330.393 180.459 329.015C181.286 327.085 170.26 290.7 151.792 233.641C150.965 231.16 151.516 228.955 153.17 228.955C154.548 228.955 157.856 236.673 160.612 246.045ZM127.81 276.366C144.074 295.661 157.305 336.457 147.106 336.457C144.074 336.457 142.695 333.976 142.42 328.739L142.144 321.297L140.214 328.188C138.561 334.528 136.631 335.079 120.092 336.457L102.175 337.835L104.656 330.393C106.31 325.983 108.515 323.226 109.618 324.053C110.996 324.88 112.925 324.053 114.028 322.399C115.131 320.194 114.855 319.918 112.925 321.021C108.24 323.777 108.791 318.264 114.028 308.617C116.233 303.931 117.887 299.521 117.06 298.969C116.509 298.142 111.823 306.963 106.861 318.54C97.765 339.489 96.938 340.592 89.2199 337.56C85.9122 336.181 87.5661 330.944 99.4188 307.514C110.445 284.911 114.304 279.398 117.06 281.879C119.265 283.533 120.092 287.392 119.265 290.7C118.163 294.559 118.438 295.386 120.092 292.905C122.022 290.149 123.124 290.149 126.157 293.456C128.913 297.04 128.637 299.245 125.054 305.309L120.368 313.027L125.605 306.963C128.637 303.655 131.945 301.726 133.048 302.828C135.804 305.309 129.74 293.732 121.471 280.777C118.163 274.988 115.131 269.751 115.131 268.924C115.131 265.065 120.919 268.373 127.81 276.366ZM165.85 351.618C164.747 353.823 162.542 355.752 160.337 355.752C158.131 355.752 156.478 353.823 156.478 351.618C156.478 349.412 158.958 347.483 161.99 347.483C165.574 347.483 166.952 348.861 165.85 351.618ZM95.8354 359.611C105.759 362.092 125.881 364.849 140.766 365.951C164.196 367.329 167.503 368.156 167.503 372.842C167.503 378.907 172.189 379.458 118.163 368.432C81.7775 361.265 72.6812 358.509 72.1299 354.65C71.5786 351.342 72.4055 350.791 74.6107 352.445C76.5402 353.823 85.9122 357.131 95.8354 359.611Z" fill="black"/>
<path d="M134.701 307.514C134.977 312.752 139.663 321.572 139.663 317.162C139.663 314.957 138.56 311.098 137.182 308.892C135.804 306.687 134.701 305.86 134.701 307.514Z" fill="black"/>
<path d="M283.826 173.826C283.826 177.685 284.377 179.063 285.204 177.134C285.756 175.48 285.756 172.172 285.204 170.242C284.377 168.589 283.826 169.967 283.826 173.826Z" fill="black"/>
<path d="M272.525 175.48C272.525 178.512 273.351 179.339 274.178 177.134C275.005 175.204 274.73 172.723 273.903 171.896C273.076 170.794 272.249 172.448 272.525 175.48Z" fill="black"/>
<path d="M286.031 187.608C286.031 190.64 287.134 193.121 288.512 193.121C289.89 193.121 290.442 190.64 289.615 187.608C288.788 184.576 287.685 182.095 287.134 182.095C286.583 182.095 286.031 184.576 286.031 187.608Z" fill="black"/>
<path d="M270.871 198.634C269.768 201.942 260.947 214.622 250.748 227.026C227.594 255.969 227.319 256.52 228.697 256.52C230.626 256.52 268.39 208.833 271.973 201.942C273.903 198.359 274.73 194.775 274.178 193.948C273.351 193.397 271.973 195.327 270.871 198.634Z" fill="black"/>
<path d="M286.307 213.795C286.031 217.102 284.929 220.686 283.55 222.064C282.172 223.718 280.243 229.231 279.416 234.468C277.762 244.116 277.762 244.116 280.794 235.846C282.448 231.16 284.929 224.82 286.583 221.513C288.236 218.481 288.788 214.07 287.961 211.865C287.134 209.66 286.307 210.487 286.307 213.795Z" fill="black"/>
<path d="M326.827 228.128C330.134 228.68 335.096 228.68 337.853 228.128C340.333 227.301 337.577 226.75 331.513 227.026C325.448 227.026 323.243 227.577 326.827 228.128Z" fill="black"/>
<path d="M82.0531 236.398C98.8676 239.43 110.169 243.289 115.131 248.25C120.092 253.212 120.368 253.212 125.054 247.424C127.81 244.116 128.362 242.738 126.432 244.667C123.4 247.148 120.368 246.872 111.823 242.462C105.759 239.43 95.2842 236.398 88.1174 236.122C80.9506 235.571 78.1941 235.571 82.0531 236.398Z" fill="black"/>
<path d="M62.2066 239.154C64.1361 239.981 66.6169 239.705 67.4438 238.878C68.5464 238.052 66.8925 237.225 63.8604 237.5C60.8283 237.5 60.0014 238.327 62.2066 239.154Z" fill="black"/>
<path d="M275.281 247.423C275.005 249.077 274.178 252.936 273.351 255.693C271.973 260.379 271.973 260.379 275.005 255.693C276.659 252.936 277.486 249.353 276.659 247.423C275.832 244.943 275.281 244.943 275.281 247.423Z" fill="black"/>
<path d="M330.686 257.347C328.756 259.552 328.756 262.309 330.135 264.789C332.615 268.648 333.442 266.719 332.615 260.379C332.615 259.276 333.994 257.347 336.199 256.244C338.404 254.866 338.68 253.763 336.75 253.763C335.096 253.763 332.34 255.417 330.686 257.347Z" fill="black"/>
<path d="M65.5144 260.379C65.5144 260.93 67.4439 262.033 69.6491 263.135C71.8543 263.962 73.7838 263.411 73.7838 262.033C73.7838 260.379 71.8543 259.276 69.6491 259.276C67.4439 259.276 65.5144 259.828 65.5144 260.379Z" fill="black"/>
<path d="M95.2842 262.584C98.592 264.238 101.348 267.546 101.348 270.026C101.348 273.885 101.9 273.885 104.105 270.302C106.034 267.27 104.932 265.34 100.522 262.86C97.2138 260.93 93.3547 259.552 91.7008 259.552C90.3226 259.552 91.7008 260.93 95.2842 262.584Z" fill="black"/>
<path d="M223.46 262.584C219.325 268.097 216.568 273.059 217.947 273.059C218.774 273.059 221.254 270.026 223.735 266.167C228.421 259.001 228.146 256.52 223.46 262.584Z" fill="black"/>
<path d="M320.763 265.065C321.865 268.648 323.519 276.366 324.346 282.431L326 292.905L329.308 284.36C330.962 279.674 331.237 276.366 329.859 277.469C327.93 278.572 326.551 274.437 326.827 267.546C326.827 266.719 324.898 264.514 322.692 262.308C319.109 259.001 318.833 259.276 320.763 265.065Z" fill="black"/>
<path d="M55.5911 266.443C50.6294 270.302 50.6294 270.578 56.6937 267.546C60.0014 265.892 62.7579 263.962 62.7579 263.411C62.7579 261.206 61.3796 261.757 55.5911 266.443Z" fill="black"/>
<path d="M267.012 273.334C265.082 279.398 263.979 285.187 264.806 285.738C265.358 286.29 267.287 281.879 269.217 275.539C271.146 269.475 272.249 263.687 271.422 263.135C270.871 262.584 268.941 266.994 267.012 273.334Z" fill="black"/>
<path d="M44.8409 273.058C44.014 274.437 44.5653 275.815 45.9435 275.815C47.5974 275.815 48.9756 274.437 48.9756 273.058C48.9756 271.405 48.4243 270.302 47.873 270.302C47.0461 270.302 45.6679 271.405 44.8409 273.058Z" fill="black"/>
<path d="M31.3343 288.219C24.1675 299.245 21.1353 308.892 18.6545 328.188C13.4173 367.329 26.097 410.33 49.8025 434.036C71.3029 455.261 92.8033 456.639 114.028 437.619C123.676 429.35 137.458 406.196 136.907 399.304C136.907 397.375 133.875 402.336 130.016 410.606C122.849 426.593 107.137 442.856 96.3867 445.889C80.9505 449.748 48.7 437.619 53.3859 429.625C54.4885 427.972 53.9372 427.42 52.2834 428.523C47.0461 431.831 24.4431 392.413 28.3021 386.349C29.1291 384.971 28.0265 383.317 26.3726 382.766C21.1353 380.836 21.411 316.059 26.6483 304.206C28.5778 299.245 31.6099 295.937 33.2638 297.04C34.9177 297.867 35.1933 297.315 34.0907 295.661C32.9881 294.008 33.5394 289.873 35.1933 286.841C39.328 279.123 36.8472 279.95 31.3343 288.219Z" fill="black"/>
<path d="M261.499 294.008C261.499 297.04 262.326 297.867 263.153 295.661C263.979 293.732 263.704 291.251 262.877 290.424C262.05 289.322 261.223 290.975 261.499 294.008Z" fill="black"/>
<path d="M199.478 304.482C193.139 317.713 194.241 320.745 200.581 307.79C203.613 301.726 205.543 296.488 204.991 295.937C204.44 295.386 201.959 299.245 199.478 304.482Z" fill="black"/>
<path d="M37.9497 304.482C37.9497 305.034 40.1549 307.239 42.9113 309.168C47.046 312.752 47.3217 312.476 43.7383 308.066C40.1549 303.655 37.9497 302.277 37.9497 304.482Z" fill="black"/>
<path d="M392.155 371.464C391.328 374.221 392.155 374.496 395.738 372.842C398.219 371.464 402.354 369.535 404.559 368.708C406.764 367.881 405.386 367.329 401.251 367.605C397.117 367.881 392.982 369.535 392.155 371.464Z" fill="black"/>
<path d="M404.559 383.317C406.213 386.349 408.142 388.83 408.969 388.83C409.521 388.83 408.969 386.349 407.316 383.317C405.662 380.285 403.732 377.804 402.905 377.804C402.354 377.804 402.905 380.285 404.559 383.317Z" fill="black"/>
<path d="M319.66 390.208C319.66 394.619 320.211 396.272 321.038 393.516C321.589 391.035 321.589 387.176 321.038 385.247C320.211 383.593 319.66 385.522 319.66 390.208Z" fill="black"/>
<path d="M50.0781 394.894L44.8408 401.234L51.1807 395.997C56.9692 391.035 58.6231 388.83 56.418 388.83C55.8667 388.83 53.1102 391.586 50.0781 394.894Z" fill="black"/>
<path d="M98.5918 397.099C98.5918 398.477 99.97 399.856 101.624 399.856C103.002 399.856 103.553 398.477 102.726 397.099C101.9 395.445 100.521 394.343 99.6944 394.343C99.1431 394.343 98.5918 395.445 98.5918 397.099Z" fill="black"/>
<path d="M82.3287 404.266C82.3287 407.298 83.1557 408.125 83.9826 405.92C84.8095 403.99 84.5339 401.51 83.707 400.683C82.88 399.58 82.0531 401.234 82.3287 404.266Z" fill="black"/>
<path d="M322.692 416.394C322.692 423.286 323.243 426.042 323.795 422.459C324.346 419.151 324.346 413.638 323.795 410.055C323.243 406.747 322.692 409.503 322.692 416.394Z" fill="black"/>
<path d="M85.3608 430.177C85.3608 434.036 85.9121 435.414 86.7391 433.484C87.2904 431.831 87.2904 428.523 86.7391 426.593C85.9121 424.939 85.3608 426.318 85.3608 430.177Z" fill="black"/>
</g>
<defs>
<clipPath id="clip0_107_64">
<rect width="576" height="500" fill="white"/>
</clipPath>
</defs>
</svg>
